0
SECTION
2
HEADER
9
$INSUNITS
70
4
9
$ACADVER
1
AC1014
9
$HANDSEED
5
FFFF
0
ENDSEC
0
SECTION
2
TABLES
0
TABLE
2
VPORT
5
8
100
AcDbSymbolTable
0
ENDTAB
0
TABLE
2
LTYPE
5
5
100
AcDbSymbolTable
0
LTYPE
5
14
100
AcDbSymbolTableRecord
100
AcDbLinetypeTableRecord
2
BYBLOCK
70
0
0
LTYPE
5
15
100
AcDbSymbolTableRecord
100
AcDbLinetypeTableRecord
2
BYLAYER
70
0
0
ENDTAB
0
TABLE
2
LAYER
5
2
100
AcDbSymbolTable
70
2
0
LAYER
5
50
100
AcDbSymbolTableRecord
100
AcDbLayerTableRecord
2
0
70
0
6
CONTINUOUS
0
ENDTAB
0
TABLE
2
STYLE
5
3
100
AcDbSymbolTable
70
1
0
STYLE
5
11
100
AcDbSymbolTableRecord
100
AcDbTextStyleTableRecord
2
STANDARD
70
0
0
ENDTAB
0
TABLE
2
VIEW
5
6
100
AcDbSymbolTable
70
0
0
ENDTAB
0
TABLE
2
UCS
5
7
100
AcDbSymbolTable
70
0
0
ENDTAB
0
TABLE
2
APPID
5
9
100
AcDbSymbolTable
70
2
0
APPID
5
12
100
AcDbSymbolTableRecord
100
AcDbRegAppTableRecord
2
ACAD
70
0
0
ENDTAB
0
TABLE
2
DIMSTYLE
5
A
100
AcDbSymbolTable
70
1
0
ENDTAB
0
TABLE
2
BLOCK_RECORD
5
1
100
AcDbSymbolTable
70
1
0
BLOCK_RECORD
5
1F
100
AcDbSymbolTableRecord
100
AcDbBlockTableRecord
2
*MODEL_SPACE
0
BLOCK_RECORD
5
1B
100
AcDbSymbolTableRecord
100
AcDbBlockTableRecord
2
*PAPER_SPACE
0
ENDTAB
0
ENDSEC
0
SECTION
2
BLOCKS
0
BLOCK
5
20
100
AcDbEntity
100
AcDbBlockBegin
2
*MODEL_SPACE
0
ENDBLK
5
21
100
AcDbEntity
100
AcDbBlockEnd
0
BLOCK
5
1C
100
AcDbEntity
100
AcDbBlockBegin
2
*PAPER_SPACE
0
ENDBLK
5
1D
100
AcDbEntity
100
AcDbBlockEnd
0
ENDSEC
0
SECTION
2
ENTITIES
0
LWPOLYLINE
5
100
100
AcDbEntity
8
0
100
AcDbPolyline
90
31
70
1
43
0.0
10
-164.64148344411953
20
-223.23507172297036
10
-164.64148344411953
20
-217.73506828974286
10
-165.74148291959861
20
-217.73506828974269
10
-165.74147686376676
20
-214.53506981562163
10
-164.64148142550891
20
-214.53506981562163
10
-164.64148142550883
20
-207.23507127792237
10
-161.24147699092333
20
-207.23507127792226
10
-161.24147699092327
20
-214.53506981562163
10
-160.14147549683349
20
-214.5350698156218
10
-160.14147549683358
20
-217.73506828974286
10
-161.24147699092333
20
-217.73506828974286
10
-161.24147699092327
20
-223.23506364852784
10
-154.94148201360798
20
-223.23506364852767
10
-154.94148201360804
20
-188.73506596913529
10
-153.9414824904452
20
-187.73506644597236
10
-153.94148249044517
20
-166.73506434788891
10
-195.44148086919881
20
-166.73506434788894
10
-199.94147670482101
20
-172.23506374389524
10
-199.94147670482101
20
-173.73506302863944
10
-199.44147896185024
20
-174.23506279022087
10
-173.44147924795251
20
-174.23506279022092
10
-170.94147842143479
20
-176.73506361673867
10
-170.94147842143479
20
-214.73504953414789
10
-173.44147924795254
20
-217.23505036066564
10
-198.4414794386874
20
-217.23505036066564
10
-198.4414794386874
20
-222.73505379389314
10
-197.94148169571656
20
-223.23505557408515
10
-186.24148121887947
20
-223.23505557408532
10
-186.24148121887947
20
-228.73505900731283
10
-171.34148226792121
20
-228.73505900731283
10
-171.34148226792118
20
-223.23506364852784
0
LWPOLYLINE
5
101
100
AcDbEntity
8
0
100
AcDbPolyline
90
52
70
1
43
0.0
10
-146.74983861055603
20
-180.97276952848722
10
-124.7498386105562
20
-158.97276952848745
10
-28.294051326829788
20
-158.97276952848847
10
-11.043664834418614
20
-176.22315602089907
10
10.544191063827206
20
-176.22315602089907
10
27.794577556238416
20
-158.97276952848787
10
124.25036483996486
20
-158.9727695284879
10
146.25036483996473
20
-180.97276952848739
10
146.25036483996467
20
-193.97322519407624
10
135.75023056262091
20
-193.97322519407624
10
135.75023056262094
20
-200.47308684772204
10
145.75013697538139
20
-200.47308684772204
10
145.75013697538137
20
-240.47286305214911
10
139.75013697538139
20
-246.47286305214914
10
116.75045028918345
20
-246.47286305214919
10
106.75045028918348
20
-236.47286305214914
10
106.75045028918345
20
-225.97276539589922
10
90.750450289183391
20
-209.97276539589919
10
81.750425875120925
20
-209.97276539589919
10
81.750425875120925
20
-205.47278167194088
10
81.750433949563472
20
-204.97307057168044
10
81.750433949563472
20
-200.47308684772213
10
95.250385121438484
20
-200.47308684772213
10
95.250385121438484
20
-193.97322519407629
10
84.750250844094779
20
-193.97322519407629
10
84.750250844094737
20
-187.97307464069087
10
91.250112497740545
20
-187.97307464069087
10
91.250112497740503
20
-176.97322926308664
10
35.249961944355128
20
-176.97322926308664
10
18.000035186542931
20
-194.22315602089901
10
-18.499508957134339
20
-194.22315602089901
10
-35.749435714946515
20
-176.97322926308686
10
-91.74958626833191
20
-176.97322926308664
10
-91.74958626833191
20
-187.97307464069087
10
-85.249724614686102
20
-187.97307464069087
10
-85.249724614686187
20
-193.97322519407629
10
-95.749858892029849
20
-193.97322519407629
10
-95.749858892029891
20
-200.47308684772213
10
-82.249907720154852
20
-200.47308684772213
10
-82.249907720154852
20
-204.97307057168052
10
-82.249899645712333
20
-205.47278167194088
10
-82.249899645712333
20
-209.9727653958991
10
-91.249924059774827
20
-209.97276539589919
10
-107.24992405977488
20
-225.97276539589922
10
-107.2499240597749
20
-236.47286305214914
10
-117.24992405977491
20
-246.47286305214914
10
-140.24961074597283
20
-246.47286305214914
10
-146.2496107459728
20
-240.47286305214911
10
-146.24961074597269
20
-200.47308684772196
10
-136.24970433321235
20
-200.47308684772213
10
-136.24970433321226
20
-193.97322519407618
10
-146.74983861055605
20
-193.97322519407618
0
CIRCLE
5
102
100
AcDbEntity
8
0
100
AcDbCircle
10
87.750204688922963
20
-165.97299759381585
30
0
40
1.6000000014583371
0
CIRCLE
5
103
100
AcDbEntity
8
0
100
AcDbCircle
10
-129.47360064701451
20
-226.82371409381579
30
0
40
1.6000000014583193
0
ELLIPSE
5
104
100
AcDbEntity
8
0
100
AcDbEllipse
10
119.95406745747584
20
-233.99768304524443
30
0
11
-2.7755575615628914e-15
21
3.0000016729166665
31
0.0
40
0.91666613015076237
41
4.4811563737079609
42
6.24201016286049
0
ELLIPSE
5
105
100
AcDbEntity
8
0
100
AcDbEllipse
10
119.72503286058486
20
-233.97690384765662
30
0
11
-2.7755575615628914e-15
21
3.0000016729166665
31
0.0
40
0.91666613015076237
41
6.1584129929182794
42
8.1188360458491555
0
ELLIPSE
5
106
100
AcDbEntity
8
0
100
AcDbEllipse
10
119.74773143495352
20
-235.44974344030385
30
0
11
-2.7755575615628914e-15
21
3.0000016729166665
31
0.0
40
0.91666613015076237
41
1.3395637201181936
42
3.100417509270577
0
ELLIPSE
5
107
100
AcDbEntity
8
0
100
AcDbEllipse
10
119.97676603184452
20
-235.47052263789175
30
0
11
-2.7755575615628914e-15
21
3.0000016729166665
31
0.0
40
0.91666613015076237
41
3.0168203393283597
42
4.9772433922593482
0
CIRCLE
5
108
100
AcDbEntity
8
0
100
AcDbCircle
10
136.750201938923
20
-234.97299453131581
30
0
40
3.2499998499999982
0
CIRCLE
5
109
100
AcDbEntity
8
0
100
AcDbCircle
10
-116.10040010534772
20
-196.47299215631568
30
0
40
1.6000000014583549
0
CIRCLE
5
110
100
AcDbEntity
8
0
100
AcDbCircle
10
-137.24967570951446
20
-234.97299453131569
30
0
40
3.249999850000016
0
CIRCLE
5
111
100
AcDbEntity
8
0
100
AcDbCircle
10
115.60092633475634
20
-196.47299215631585
30
0
40
1.6000000014583371
0
CIRCLE
5
112
100
AcDbEntity
8
0
100
AcDbCircle
10
-88.249678459514342
20
-165.97299759381576
30
0
40
1.6000000014583549
0
ELLIPSE
5
113
100
AcDbEntity
8
0
100
AcDbEllipse
10
-120.45354122806731
20
-233.99768304524434
30
0
11
3.8303571273913363e-15
21
3.0000016729166665
31
0.0
40
0.91666613015076237
41
0.0411751443191034
42
1.8020289334716257
0
ELLIPSE
5
114
100
AcDbEntity
8
0
100
AcDbEllipse
10
-120.47623980243597
20
-235.47052263789175
30
0
11
3.8303571273913363e-15
21
3.0000016729166665
31
0.0
40
0.91666613015076237
41
1.3059419149202258
42
3.2663649678512265
0
ELLIPSE
5
115
100
AcDbEntity
8
0
100
AcDbEllipse
10
-120.24720520554496
20
-235.44974344030385
30
0
11
3.8303571273913363e-15
21
3.0000016729166665
31
0.0
40
0.91666613015076237
41
3.1827677979090021
42
4.94362158706139
0
ELLIPSE
5
116
100
AcDbEntity
8
0
100
AcDbEllipse
10
-120.22450663117627
20
-233.97690384765662
30
0
11
3.8303571273913363e-15
21
3.0000016729166665
31
0.0
40
0.91666613015076237
41
4.4475345685100329
42
6.407957621440918
0
CIRCLE
5
117
100
AcDbEntity
8
0
100
AcDbCircle
10
128.9741268764231
20
-226.82371409381579
30
0
40
1.6000000014583371
0
CIRCLE
5
118
100
AcDbEntity
8
0
100
AcDbCircle
10
24.577377479362426
20
-230.84004766444849
30
0
40
1.6000000014583549
0
LWPOLYLINE
5
119
100
AcDbEntity
8
0
100
AcDbPolyline
90
4
70
1
43
0.0
10
-10.922678891054254
20
-245.24006080090686
10
-10.922678891054289
20
-236.7400608675735
10
-4.9226813660542845
20
-236.7400608675735
10
-4.9226813660542845
20
-245.2400608009068
0
CIRCLE
5
120
100
AcDbEntity
8
0
100
AcDbCircle
10
8.0773429047791012
20
-232.74007349778179
30
0
40
1.6000000014583193
0
CIRCLE
5
121
100
AcDbEntity
8
0
100
AcDbCircle
10
31.577380994779105
20
-238.84004224778175
30
0
40
4.0000002020833136
0
CIRCLE
5
122
100
AcDbEntity
8
0
100
AcDbCircle
10
-7.9226833035542654
20
-232.74007349778179
30
0
40
1.6000000014583193
0
LWPOLYLINE
5
123
100
AcDbEntity
8
0
100
AcDbPolyline
90
4
70
1
43
0.0
10
5.0773473172790773
20
-245.24006080090686
10
5.0773473172790773
20
-236.7400608675735
10
11.077344842279118
20
-236.7400608675735
10
11.077344842279118
20
-245.2400608009068
0
CIRCLE
5
124
100
AcDbEntity
8
0
100
AcDbCircle
10
0.077369818841575011
20
-216.84027317877138
30
0
40
10
0
CIRCLE
5
125
100
AcDbEntity
8
0
100
AcDbCircle
10
-31.422641171887591
20
-238.84004224778175
30
0
40
4.0000002020833492
0
CIRCLE
5
126
100
AcDbEntity
8
0
100
AcDbCircle
10
50.327368286237402
20
-212.84007043528186
30
0
40
3.0000000854166586
0
CIRCLE
5
127
100
AcDbEntity
8
0
100
AcDbCircle
10
-50.172626505429321
20
-212.84007043528186
30
0
40
3.0000000854166586
0
CIRCLE
5
128
100
AcDbEntity
8
0
100
AcDbCircle
10
-24.422635645637598
20
-230.84004766444849
30
0
40
1.6000000014583193
0
LWPOLYLINE
5
129
100
AcDbEntity
8
0
100
AcDbPolyline
90
8
70
1
43
0.0
10
60.077360319490609
20
-248.84002064581239
10
-59.922620681807473
20
-248.84002064581242
42
-0.41421384060253114
10
-69.92262068180294
20
-238.84001114646605
10
-69.922595033807482
20
-211.84026367942494
42
-0.41421328414370695
10
-59.922595033812016
20
-201.84027317877135
10
60.077334671495137
20
-201.84027317877135
42
-0.41421328414370634
10
70.077334671490647
20
-211.84026367942494
10
70.077360319486147
20
-238.84001114646591
42
-0.41421384060253974
0
CIRCLE
5
130
100
AcDbEntity
8
0
100
AcDbCircle
10
173.78462887043781
20
-235.87625233412376
30
0
40
3.0000000854166675
0
LINE
5
131
100
AcDbEntity
8
0
100
AcDbLine
10
156.38462562418107
20
-214.87624245615342
30
0
11
164.78462969318093
21
-214.87625187633489
31
0
0
SPLINE
5
132
100
AcDbEntity
8
0
100
AcDbSpline
70
1064
71
3
72
8
73
4
74
0
42
0.000000001
43
0.0000000001
44
0.0000000001
40
-1
40
-1
40
-1
40
-1
40
0
40
0
40
0
40
0
10
174.08462727721684
20
-242.57624741525979
30
0
10
168.2047051733349
20
-242.57624741525979
30
0
10
152.88462931172191
20
-233.37624372771921
30
0
10
156.38462562418113
20
-214.87624245615359
30
0
0
SPLINE
5
133
100
AcDbEntity
8
0
100
AcDbSpline
70
1064
71
3
72
8
73
4
74
0
42
0.000000001
43
0.0000000001
44
0.0000000001
40
-1
40
-1
40
-1
40
-1
40
0
40
0
40
0
40
0
10
180.54594154214996
20
-234.11266518564554
30
0
10
181.28462384398915
20
-236.8762400401784
30
0
10
179.96454938109864
20
-242.57624741525979
30
0
10
174.08462727721684
20
-242.57624741525979
30
0
0
SPLINE
5
134
100
AcDbEntity
8
0
100
AcDbSpline
70
1064
71
3
72
8
73
4
74
0
42
0.000000001
43
0.0000000001
44
0.0000000001
40
-1
40
-1
40
-1
40
-1
40
0
40
0
40
0
40
0
10
178.48463325357557
20
-209.37625517181095
30
0
10
178.48463325357571
20
-229.37624563506768
30
0
10
179.80725924031077
20
-231.34907418222747
30
0
10
180.54594154214996
20
-234.11266518564554
30
0
0
LINE
5
135
100
AcDbEntity
8
0
100
AcDbLine
10
170.78463490661105
20
-209.37625517181104
30
0
11
178.48463325357557
21
-209.37625517181095
31
0
0
LINE
5
136
100
AcDbEntity
8
0
100
AcDbLine
10
170.7846349066111
20
-214.87625860503846
30
0
11
170.78463490661105
21
-209.37625517181104
31
0
0
LINE
5
137
100
AcDbEntity
8
0
100
AcDbLine
10
168.18463210916639
20
-214.87625568926632
30
0
11
170.7846349066111
21
-214.87625860503846
31
0
0
LINE
5
138
100
AcDbEntity
8
0
100
AcDbLine
10
168.18463210916647
20
-220.37624588938093
30
0
11
168.18463210916639
21
-214.87625568926632
31
0
0
LINE
5
139
100
AcDbEntity
8
0
100
AcDbLine
10
169.28462956603497
20
-220.37624588938093
30
0
11
168.18463210916647
21
-220.37624588938093
31
0
0
LINE
5
140
100
AcDbEntity
8
0
100
AcDbLine
10
169.28462956603497
20
-223.57624436350198
30
0
11
169.28462956603497
21
-220.37624588938093
31
0
0
LINE
5
141
100
AcDbEntity
8
0
100
AcDbLine
10
168.18463210916647
20
-223.57624436350198
30
0
11
169.28462956603497
21
-223.57624436350198
31
0
0
LINE
5
142
100
AcDbEntity
8
0
100
AcDbLine
10
168.18463210916661
20
-229.17624169321391
30
0
11
168.18463210916647
21
-223.57624436350198
31
0
0
LINE
5
143
100
AcDbEntity
8
0
100
AcDbLine
10
164.78462969319168
20
-229.17624169321391
30
0
11
168.18463210916661
21
-229.17624169321391
31
0
0
LINE
5
144
100
AcDbEntity
8
0
100
AcDbLine
10
164.78462969319168
20
-223.57624436350198
30
0
11
164.78462969319168
21
-229.17624169321391
31
0
0
LINE
5
145
100
AcDbEntity
8
0
100
AcDbLine
10
163.68463223632318
20
-223.57624436350198
30
0
11
164.78462969319168
21
-223.57624436350198
31
0
0
LINE
5
146
100
AcDbEntity
8
0
100
AcDbLine
10
163.68463223632304
20
-220.3762458893811
30
0
11
163.68463223632318
21
-223.57624436350198
31
0
0
LINE
5
147
100
AcDbEntity
8
0
100
AcDbLine
10
164.78462969319153
20
-220.37624588938093
30
0
11
163.68463223632304
21
-220.3762458893811
31
0
0
LINE
5
148
100
AcDbEntity
8
0
100
AcDbLine
10
164.78462969318093
20
-214.87625187633489
30
0
11
164.78462969319153
21
-220.37624588938093
31
0
0
LINE
5
149
100
AcDbEntity
8
0
100
AcDbLine
10
184.96295711882595
20
-182.37872936212119
30
0
11
179.46295368559842
21
-182.37872936212128
31
0
0
LINE
5
150
100
AcDbEntity
8
0
100
AcDbLine
10
184.96297326771102
20
-177.67872352881326
30
0
11
184.96295711882595
21
-182.37872936212119
31
0
0
LINE
5
151
100
AcDbEntity
8
0
100
AcDbLine
10
190.4629767009385
20
-177.67872352881318
30
0
11
184.96297326771102
21
-177.67872352881326
31
0
0
LINE
5
152
100
AcDbEntity
8
0
100
AcDbLine
10
190.4629767009385
20
-171.67872336192011
30
0
11
190.4629767009385
21
-177.67872352881318
31
0
0
LINE
5
153
100
AcDbEntity
8
0
100
AcDbLine
10
184.96297326771085
20
-171.67872336192028
30
0
11
190.4629767009385
21
-171.67872336192011
31
0
0
LINE
5
154
100
AcDbEntity
8
0
100
AcDbLine
10
184.96297326771085
20
-169.77872325860551
30
0
11
184.96297326771085
21
-171.67872336192028
31
0
0
SPLINE
5
155
100
AcDbEntity
8
0
100
AcDbSpline
70
1064
71
3
72
8
73
4
74
0
42
0.000000001
43
0.0000000001
44
0.0000000001
40
0
40
0
40
0
40
0
40
1
40
1
40
1
40
1
10
153.46297415780711
20
-200.77872260692834
30
0
10
153.46297415780697
20
-181.77872359239183
30
0
10
167.96299348560638
20
-169.77872325860551
30
0
10
184.96297326771085
20
-169.77872325860551
30
0
0
LINE
5
156
100
AcDbEntity
8
0
100
AcDbLine
10
153.46297415780725
20
-206.27872200293461
30
0
11
153.46297415780711
21
-200.77872260692834
31
0
0
LINE
5
157
100
AcDbEntity
8
0
100
AcDbLine
10
155.46294898080532
20
-206.27872604015585
30
0
11
153.46297415780725
21
-206.27872200293461
31
0
0
LINE
5
158
100
AcDbEntity
8
0
100
AcDbLine
10
155.46294898080532
20
-211.77872543616212
30
0
11
155.46294898080532
21
-206.27872604015585
31
0
0
LINE
5
159
100
AcDbEntity
8
0
100
AcDbLine
10
160.96293626514779
20
-211.77872543616212
30
0
11
155.46294898080532
21
-211.77872543616212
31
0
0
LINE
5
160
100
AcDbEntity
8
0
100
AcDbLine
10
160.96293626514779
20
-206.27872604015585
30
0
11
160.96293626514779
21
-211.77872543616212
31
0
0
LINE
5
161
100
AcDbEntity
8
0
100
AcDbLine
10
165.96298636483851
20
-206.27872200293444
30
0
11
160.96293626514779
21
-206.27872604015585
31
0
0
LINE
5
162
100
AcDbEntity
8
0
100
AcDbLine
10
165.96298636483837
20
-200.77871856970694
30
0
11
165.96298636483851
21
-206.27872200293444
31
0
0
LINE
5
163
100
AcDbEntity
8
0
100
AcDbLine
10
164.86298890796988
20
-200.77871856970694
30
0
11
165.96298636483837
21
-200.77871856970694
31
0
0
LINE
5
164
100
AcDbEntity
8
0
100
AcDbLine
10
164.86298890796988
20
-197.57871605836465
30
0
11
164.86298890796988
21
-200.77871856970694
31
0
0
LINE
5
165
100
AcDbEntity
8
0
100
AcDbLine
10
165.96298636483837
20
-197.57871605836448
30
0
11
164.86298890796988
21
-197.57871605836465
31
0
0
LINE
5
166
100
AcDbEntity
8
0
100
AcDbLine
10
165.96298636483837
20
-190.47872348112969
30
0
11
165.96298636483837
21
-197.57871605836448
31
0
0
LINE
5
167
100
AcDbEntity
8
0
100
AcDbLine
10
169.36297263192813
20
-190.47872348112969
30
0
11
165.96298636483837
21
-190.47872348112969
31
0
0
LINE
5
168
100
AcDbEntity
8
0
100
AcDbLine
10
169.36297263192813
20
-197.57872009558588
30
0
11
169.36297263192813
21
-190.47872348112969
31
0
0
LINE
5
169
100
AcDbEntity
8
0
100
AcDbLine
10
170.46297008879662
20
-197.57872009558577
30
0
11
169.36297263192813
21
-197.57872009558588
31
0
0
LINE
5
170
100
AcDbEntity
8
0
100
AcDbLine
10
170.46297008879677
20
-200.77872260692823
30
0
11
170.46297008879662
21
-197.57872009558577
31
0
0
LINE
5
171
100
AcDbEntity
8
0
100
AcDbLine
10
169.36297263192827
20
-200.77872260692834
30
0
11
170.46297008879677
21
-200.77872260692823
31
0
0
LINE
5
172
100
AcDbEntity
8
0
100
AcDbLine
10
169.36297263192841
20
-206.27872604015585
30
0
11
169.36297263192827
21
-200.77872260692834
31
0
0
LINE
5
173
100
AcDbEntity
8
0
100
AcDbLine
10
184.9629571188261
20
-206.27872604015556
30
0
11
169.36297263192841
21
-206.27872604015585
31
0
0
LINE
5
174
100
AcDbEntity
8
0
100
AcDbLine
10
184.96295711882595
20
-200.77872260692806
30
0
11
184.9629571188261
21
-206.27872604015556
31
0
0
LINE
5
175
100
AcDbEntity
8
0
100
AcDbLine
10
182.96294999805781
20
-200.77872260692823
30
0
11
184.96295711882595
21
-200.77872260692806
31
0
0
LINE
5
176
100
AcDbEntity
8
0
100
AcDbLine
10
182.96294999805781
20
-197.27872427585817
30
0
11
182.96294999805781
21
-200.77872260692823
31
0
0
LINE
5
177
100
AcDbEntity
8
0
100
AcDbLine
10
184.96295711882595
20
-197.27872427585817
30
0
11
182.96294999805781
21
-197.27872427585817
31
0
0
LINE
5
178
100
AcDbEntity
8
0
100
AcDbLine
10
184.96296569768703
20
-186.8665079864906
30
0
11
184.96295711882595
21
-197.27872427585817
31
0
0
LINE
5
179
100
AcDbEntity
8
0
100
AcDbLine
10
184.96297326771105
20
-185.77873177809622
30
0
11
184.96296569768703
21
-186.8665079864906
31
0
0
LINE
5
180
100
AcDbEntity
8
0
100
AcDbLine
10
179.46296983448349
20
-185.77873177809613
30
0
11
184.96297326771105
21
-185.77873177809622
31
0
0
LINE
5
181
100
AcDbEntity
8
0
100
AcDbLine
10
179.46296983448349
20
-186.87873730940714
30
0
11
179.46296983448349
21
-185.77873177809613
31
0
0
LINE
5
182
100
AcDbEntity
8
0
100
AcDbLine
10
176.26297136036229
20
-186.87873730940714
30
0
11
179.46296983448349
21
-186.87873730940714
31
0
0
LINE
5
183
100
AcDbEntity
8
0
100
AcDbLine
10
176.26297136036243
20
-185.77873177809613
30
0
11
176.26297136036229
21
-186.87873730940714
31
0
0
LINE
5
184
100
AcDbEntity
8
0
100
AcDbLine
10
169.16295254118921
20
-185.77873177809613
30
0
11
176.26297136036243
21
-185.77873177809613
31
0
0
LINE
5
185
100
AcDbEntity
8
0
100
AcDbLine
10
169.16295254118921
20
-182.37872936212119
30
0
11
169.16295254118921
21
-185.77873177809613
31
0
0
LINE
5
186
100
AcDbEntity
8
0
100
AcDbLine
10
176.26295521147725
20
-182.37872936212119
30
0
11
169.16295254118921
21
-182.37872936212119
31
0
0
LINE
5
187
100
AcDbEntity
8
0
100
AcDbLine
10
176.26295521147725
20
-181.27872282150486
30
0
11
176.26295521147725
21
-182.37872936212119
31
0
0
LINE
5
188
100
AcDbEntity
8
0
100
AcDbLine
10
179.46295368559831
20
-181.27872282150486
30
0
11
176.26295521147725
21
-181.27872282150486
31
0
0
LINE
5
189
100
AcDbEntity
8
0
100
AcDbLine
10
179.46295368559842
20
-182.37872936212128
30
0
11
179.46295368559831
21
-181.27872282150486
31
0
0
CIRCLE
5
190
100
AcDbEntity
8
0
100
AcDbCircle
10
202.2820552990423
20
-231.6655136809751
30
0
40
3.0000000854166586
0
LINE
5
191
100
AcDbEntity
8
0
100
AcDbLine
10
184.8820520527857
20
-210.66550380300475
30
0
11
193.28205612178553
21
-210.66551322318617
31
0
0
SPLINE
5
192
100
AcDbEntity
8
0
100
AcDbSpline
70
1064
71
3
72
8
73
4
74
0
42
0.000000001
43
0.0000000001
44
0.0000000001
40
-1
40
-1
40
-1
40
-1
40
0
40
0
40
0
40
0
10
202.58205370582132
20
-238.36550876211112
30
0
10
196.70213160193953
20
-238.36550876211101
30
0
10
181.38205574032639
20
-229.16550507457038
30
0
10
184.88205205278561
20
-210.66550380300464
30
0
0
SPLINE
5
193
100
AcDbEntity
8
0
100
AcDbSpline
70
1064
71
3
72
8
73
4
74
0
42
0.000000001
43
0.0000000001
44
0.0000000001
40
-1
40
-1
40
-1
40
-1
40
0
40
0
40
0
40
0
10
209.04336797075459
20
-229.90192653249687
30
0
10
209.78205027259378
20
-232.66550138702962
30
0
10
208.46197580970312
20
-238.36550876211101
30
0
10
202.58205370582132
20
-238.36550876211112
30
0
0
SPLINE
5
194
100
AcDbEntity
8
0
100
AcDbSpline
70
1064
71
3
72
8
73
4
74
0
42
0.000000001
43
0.0000000001
44
0.0000000001
40
-1
40
-1
40
-1
40
-1
40
0
40
0
40
0
40
0
10
206.98205968218019
20
-205.16551651866217
30
0
10
206.98205968218033
20
-225.16550698191901
30
0
10
208.30468566891525
20
-227.1383355290788
30
0
10
209.04336797075459
20
-229.90192653249687
30
0
0
LINE
5
195
100
AcDbEntity
8
0
100
AcDbLine
10
199.28206133521567
20
-205.16551651866223
30
0
11
206.98205968218019
21
-205.16551651866217
31
0
0
LINE
5
196
100
AcDbEntity
8
0
100
AcDbLine
10
199.28206133521573
20
-210.66551995188979
30
0
11
199.28206133521567
21
-205.16551651866223
31
0
0
LINE
5
197
100
AcDbEntity
8
0
100
AcDbLine
10
196.68205853777101
20
-210.66551703611765
30
0
11
199.28206133521573
21
-210.66551995188979
31
0
0
LINE
5
198
100
AcDbEntity
8
0
100
AcDbLine
10
196.6820585377711
20
-216.16550723623226
30
0
11
196.68205853777101
21
-210.66551703611765
31
0
0
LINE
5
199
100
AcDbEntity
8
0
100
AcDbLine
10
197.78205599463959
20
-216.16550723623226
30
0
11
196.6820585377711
21
-216.16550723623226
31
0
0
LINE
5
200
100
AcDbEntity
8
0
100
AcDbLine
10
197.78205599463959
20
-219.36550571035332
30
0
11
197.78205599463959
21
-216.16550723623226
31
0
0
LINE
5
201
100
AcDbEntity
8
0
100
AcDbLine
10
196.6820585377711
20
-219.36550571035332
30
0
11
197.78205599463959
21
-219.36550571035332
31
0
0
LINE
5
202
100
AcDbEntity
8
0
100
AcDbLine
10
196.6820585377711
20
-224.96550304006513
30
0
11
196.6820585377711
21
-219.36550571035332
31
0
0
LINE
5
203
100
AcDbEntity
8
0
100
AcDbLine
10
193.28205612179616
20
-224.96550304006513
30
0
11
196.6820585377711
21
-224.96550304006513
31
0
0
LINE
5
204
100
AcDbEntity
8
0
100
AcDbLine
10
193.28205612179616
20
-219.36550571035332
30
0
11
193.28205612179616
21
-224.96550304006513
31
0
0
LINE
5
205
100
AcDbEntity
8
0
100
AcDbLine
10
192.18205866492767
20
-219.36550571035332
30
0
11
193.28205612179616
21
-219.36550571035332
31
0
0
LINE
5
206
100
AcDbEntity
8
0
100
AcDbLine
10
192.18205866492767
20
-216.16550723623226
30
0
11
192.18205866492767
21
-219.36550571035332
31
0
0
LINE
5
207
100
AcDbEntity
8
0
100
AcDbLine
10
193.28205612179616
20
-216.16550723623226
30
0
11
192.18205866492767
21
-216.16550723623226
31
0
0
LINE
5
208
100
AcDbEntity
8
0
100
AcDbLine
10
193.28205612178553
20
-210.66551322318617
30
0
11
193.28205612179616
21
-216.16550723623226
31
0
0
CIRCLE
5
209
100
AcDbEntity
8
0
100
AcDbCircle
10
202.80269300857952
20
-195.70796172622943
30
0
40
1.3999999516666861
0
CIRCLE
5
210
100
AcDbEntity
8
0
100
AcDbCircle
10
212.30267930024624
20
-195.70796172622943
30
0
40
1.3999999516666861
0
LWPOLYLINE
5
211
100
AcDbEntity
8
0
100
AcDbPolyline
90
20
70
1
43
0.0
10
217.45268686685606
20
-177.40796559799441
10
209.30268368794168
20
-177.40796559799441
10
209.3026836879416
20
-182.90796095677956
10
210.40268114481009
20
-182.90796095677956
10
210.40268114481009
20
-186.10795943090062
10
209.3026836879416
20
-186.10795943090062
10
209.3026836879416
20
-193.40796604304251
10
205.90268127196666
20
-193.40796604304251
10
205.90268127196666
20
-186.10795943090062
10
204.80268381509816
20
-186.10795943090062
10
204.80268381509816
20
-182.90796095677956
10
205.90268127196666
20
-182.90796095677956
10
205.90268127196674
20
-177.40796559799441
10
203.30267847452205
20
-177.40796559799449
10
203.30267847452205
20
-172.10796610662078
10
197.75267809305234
20
-172.10796610662086
10
197.75267809305234
20
-200.40796674240374
10
198.25267987324438
20
-200.90796852259581
10
216.95268508666402
20
-200.90796852259581
10
217.45268686685606
20
-200.40796674240374
0
CIRCLE
5
212
100
AcDbEntity
8
0
100
AcDbCircle
10
160.49783391637601
20
104.75010727900391
30
0
40
1.6000000014583549
0
CIRCLE
5
213
100
AcDbEntity
8
0
100
AcDbCircle
10
165.49783449970928
20
-45.749883027246071
30
0
40
1.6000000014583193
0
CIRCLE
5
214
100
AcDbEntity
8
0
100
AcDbCircle
10
160.49783391637595
20
-94.74988027724612
30
0
40
1.6000000014583371
0
CIRCLE
5
215
100
AcDbEntity
8
0
100
AcDbCircle
10
165.49783449970928
20
-85.249878110579417
30
0
40
1.6000000014583193
0
CIRCLE
5
216
100
AcDbEntity
8
0
100
AcDbCircle
10
201.49783393720935
20
104.75010727900391
30
0
40
1.6000000014583549
0
CIRCLE
5
217
100
AcDbEntity
8
0
100
AcDbCircle
10
179.49783560387601
20
132.25010493108721
30
0
40
7.5000000812499934
0
CIRCLE
5
218
100
AcDbEntity
8
0
100
AcDbCircle
10
164.49783120804261
20
-72.249880298079447
30
0
40
5.999999641666669
0
LINE
5
219
100
AcDbEntity
8
0
100
AcDbLine
10
189.49761352835512
20
-145.74983483193361
30
0
11
184.89784584341862
21
-145.74983483193361
31
0
0
SPLINE
5
220
100
AcDbEntity
8
0
100
AcDbSpline
70
1064
71
3
72
8
73
4
74
0
42
0.000000001
43
0.0000000001
44
0.0000000001
40
-0.97957037593953877
40
-0.97957037593953877
40
-0.97957037593953877
40
-0.97957037593953877
40
0
40
0
40
0
40
0
10
206.96996565588006
20
113.80010063360186
30
0
10
206.43237052792165
20
28.27891970607423
30
0
10
201.45968093414356
20
-57.866869893782521
30
0
10
189.49761352835512
20
-145.74983483193361
30
0
0
LINE
5
221
100
AcDbEntity
8
0
100
AcDbLine
10
201.49783195283433
20
113.80010063360183
30
0
11
206.96996565588006
21
113.80010063360186
31
0
0
LINE
5
222
100
AcDbEntity
8
0
100
AcDbLine
10
201.49783195283433
20
112.70010317673334
30
0
11
201.49783195283433
21
113.80010063360183
31
0
0
LINE
5
223
100
AcDbEntity
8
0
100
AcDbLine
10
198.29783347871324
20
112.70010317673334
30
0
11
201.49783195283433
21
112.70010317673334
31
0
0
LINE
5
224
100
AcDbEntity
8
0
100
AcDbLine
10
198.29783347871324
20
113.80010063360183
30
0
11
198.29783347871324
21
112.70010317673334
31
0
0
LINE
5
225
100
AcDbEntity
8
0
100
AcDbLine
10
190.9978268665713
20
113.80010063360183
30
0
11
198.29783347871324
21
113.80010063360183
31
0
0
LINE
5
226
100
AcDbEntity
8
0
100
AcDbLine
10
190.99782686657133
20
117.20010304957677
30
0
11
190.9978268665713
21
113.80010063360183
31
0
0
LINE
5
227
100
AcDbEntity
8
0
100
AcDbLine
10
198.29783347871324
20
117.20010304957677
30
0
11
190.99782686657133
21
117.20010304957677
31
0
0
LINE
5
228
100
AcDbEntity
8
0
100
AcDbLine
10
198.29783347871324
20
118.30010050644526
30
0
11
198.29783347871324
21
117.20010304957677
31
0
0
LINE
5
229
100
AcDbEntity
8
0
100
AcDbLine
10
201.49783195283433
20
118.30010050644526
30
0
11
198.29783347871324
21
118.30010050644526
31
0
0
LINE
5
230
100
AcDbEntity
8
0
100
AcDbLine
10
201.49783195283433
20
117.20010304957677
30
0
11
201.49783195283433
21
118.30010050644526
31
0
0
LINE
5
231
100
AcDbEntity
8
0
100
AcDbLine
10
206.98900933366696
20
117.20010304957677
30
0
11
201.49783195283433
21
117.20010304957677
31
0
0
SPLINE
5
232
100
AcDbEntity
8
0
100
AcDbSpline
70
1064
71
3
72
8
73
4
74
0
42
0.000000001
43
0.0000000001
44
0.0000000001
40
-1
40
-1
40
-1
40
-1
40
-0.99255297466699832
40
-0.99255297466699832
40
-0.99255297466699832
40
-0.99255297466699832
10
206.99783732392808
20
119.15010748666484
30
0
10
206.99514828447155
20
118.50014092917121
30
0
10
206.99220599515283
20
117.85013961312842
30
0
10
206.98900933366755
20
117.20010304969543
30
0
0
LINE
5
233
100
AcDbEntity
8
0
100
AcDbLine
10
212.4977600127302
20
119.15010748666484
30
0
11
206.99783732392808
21
119.15010748666484
31
0
0
LINE
5
234
100
AcDbEntity
8
0
100
AcDbLine
10
212.4977600127302
20
133.9501064853068
30
0
11
212.4977600127302
21
119.15010748666484
31
0
0
LINE
5
235
100
AcDbEntity
8
0
100
AcDbLine
10
206.99783732392808
20
133.9501064853068
30
0
11
212.4977600127302
21
133.9501064853068
31
0
0
LINE
5
236
100
AcDbEntity
8
0
100
AcDbLine
10
206.99783732392808
20
135.90010826299635
30
0
11
206.99783732392808
21
133.9501064853068
31
0
0
LINE
5
237
100
AcDbEntity
8
0
100
AcDbLine
10
201.49783195283433
20
135.90010826299635
30
0
11
206.99783732392808
21
135.90010826299635
31
0
0
LINE
5
238
100
AcDbEntity
8
0
100
AcDbLine
10
201.49783195283433
20
134.80011080612786
30
0
11
201.49783195283433
21
135.90010826299635
31
0
0
LINE
5
239
100
AcDbEntity
8
0
100
AcDbLine
10
198.29783347871324
20
134.80011080612786
30
0
11
201.49783195283433
21
134.80011080612786
31
0
0
LINE
5
240
100
AcDbEntity
8
0
100
AcDbLine
10
198.29783347871324
20
135.90010826299635
30
0
11
198.29783347871324
21
134.80011080612786
31
0
0
LINE
5
241
100
AcDbEntity
8
0
100
AcDbLine
10
190.9978268665713
20
135.90010826299635
30
0
11
198.29783347871324
21
135.90010826299635
31
0
0
LINE
5
242
100
AcDbEntity
8
0
100
AcDbLine
10
190.99782686657133
20
139.30011067897129
30
0
11
190.9978268665713
21
135.90010826299635
31
0
0
LINE
5
243
100
AcDbEntity
8
0
100
AcDbLine
10
198.29783347871324
20
139.30011067897129
30
0
11
190.99782686657133
21
139.30011067897129
31
0
0
LINE
5
244
100
AcDbEntity
8
0
100
AcDbLine
10
198.29783347871324
20
140.40010813583979
30
0
11
198.29783347871324
21
139.30011067897129
31
0
0
LINE
5
245
100
AcDbEntity
8
0
100
AcDbLine
10
201.49783195283433
20
140.40010813583979
30
0
11
198.29783347871324
21
140.40010813583979
31
0
0
LINE
5
246
100
AcDbEntity
8
0
100
AcDbLine
10
201.49783195283433
20
139.30011067897129
30
0
11
201.49783195283433
21
140.40010813583979
31
0
0
LINE
5
247
100
AcDbEntity
8
0
100
AcDbLine
10
206.99783538606187
20
139.30011067897129
30
0
11
201.49783195283433
21
139.30011067897129
31
0
0
LINE
5
248
100
AcDbEntity
8
0
100
AcDbLine
10
206.99783732392808
20
152.25005940558469
30
0
11
206.99783538606187
21
139.30011067897129
31
0
0
LINE
5
249
100
AcDbEntity
8
0
100
AcDbLine
10
191.4980082223656
20
152.25005940558469
30
0
11
206.99783732392808
21
152.25005940558469
31
0
0
LINE
5
250
100
AcDbEntity
8
0
100
AcDbLine
10
185.99808553356354
20
146.75014075400387
30
0
11
191.4980082223656
21
152.25005940558469
31
0
0
LINE
5
251
100
AcDbEntity
8
0
100
AcDbLine
10
175.99766235648019
20
146.75014075400392
30
0
11
185.99808553356354
21
146.75014075400387
31
0
0
LINE
5
252
100
AcDbEntity
8
0
100
AcDbLine
10
170.4977396676781
20
152.25005940558478
30
0
11
175.99766235648019
21
146.75014075400392
31
0
0
LINE
5
253
100
AcDbEntity
8
0
100
AcDbLine
10
154.99791056611559
20
152.25005940558469
30
0
11
170.4977396676781
21
152.25005940558478
31
0
0
LINE
5
254
100
AcDbEntity
8
0
100
AcDbLine
10
154.99791056611559
20
113.50011324940597
30
0
11
154.99791056611559
21
152.25005940558469
31
0
0
LINE
5
255
100
AcDbEntity
8
0
100
AcDbLine
10
160.49783325491762
20
113.50011324940597
30
0
11
154.99791056611559
21
113.50011324940597
31
0
0
LINE
5
256
100
AcDbEntity
8
0
100
AcDbLine
10
160.49783325491762
20
114.60011070627446
30
0
11
160.49783325491762
21
113.50011324940597
31
0
0
LINE
5
257
100
AcDbEntity
8
0
100
AcDbLine
10
163.69783172903874
20
114.60011070627446
30
0
11
160.49783325491762
21
114.60011070627446
31
0
0
LINE
5
258
100
AcDbEntity
8
0
100
AcDbLine
10
163.69783172903877
20
113.50011324940597
30
0
11
163.69783172903874
21
114.60011070627446
31
0
0
LINE
5
259
100
AcDbEntity
8
0
100
AcDbLine
10
170.99783834118068
20
113.50011324940597
30
0
11
163.69783172903877
21
113.50011324940597
31
0
0
LINE
5
260
100
AcDbEntity
8
0
100
AcDbLine
10
170.99783834118068
20
110.10011083343103
30
0
11
170.99783834118068
21
113.50011324940597
31
0
0
LINE
5
261
100
AcDbEntity
8
0
100
AcDbLine
10
163.69783172903874
20
110.10011083343103
30
0
11
170.99783834118068
21
110.10011083343103
31
0
0
LINE
5
262
100
AcDbEntity
8
0
100
AcDbLine
10
163.69783172903874
20
109.00011337656254
30
0
11
163.69783172903874
21
110.10011083343103
31
0
0
LINE
5
263
100
AcDbEntity
8
0
100
AcDbLine
10
160.49783325491762
20
109.00011337656254
30
0
11
163.69783172903874
21
109.00011337656254
31
0
0
LINE
5
264
100
AcDbEntity
8
0
100
AcDbLine
10
160.49783325491762
20
110.10011083343103
30
0
11
160.49783325491762
21
109.00011337656254
31
0
0
LINE
5
265
100
AcDbEntity
8
0
100
AcDbLine
10
154.99791056611559
20
110.10011083343103
30
0
11
160.49783325491762
21
110.10011083343103
31
0
0
LINE
5
266
100
AcDbEntity
8
0
100
AcDbLine
10
154.99791056611565
20
108.15010667604164
30
0
11
154.99791056611559
21
110.10011083343103
31
0
0
LINE
5
267
100
AcDbEntity
8
0
100
AcDbLine
10
149.49798787731353
20
108.15010667604164
30
0
11
154.99791056611565
21
108.15010667604164
31
0
0
LINE
5
268
100
AcDbEntity
8
0
100
AcDbLine
10
149.49798787731353
20
93.350108182052352
30
0
11
149.49798787731353
21
108.15010667604164
31
0
0
LINE
5
269
100
AcDbEntity
8
0
100
AcDbLine
10
154.99791056611556
20
93.350108182052352
30
0
11
149.49798787731353
21
93.350108182052352
31
0
0
LINE
5
270
100
AcDbEntity
8
0
100
AcDbLine
10
154.99791056611559
20
91.400105620011388
30
0
11
154.99791056611556
21
93.350108182052352
31
0
0
LINE
5
271
100
AcDbEntity
8
0
100
AcDbLine
10
160.49783325491762
20
91.400105620011388
30
0
11
154.99791056611559
21
91.400105620011388
31
0
0
LINE
5
272
100
AcDbEntity
8
0
100
AcDbLine
10
160.49783325491762
20
92.500103076879881
30
0
11
160.49783325491762
21
91.400105620011388
31
0
0
LINE
5
273
100
AcDbEntity
8
0
100
AcDbLine
10
163.69783172903874
20
92.500103076879881
30
0
11
160.49783325491762
21
92.500103076879881
31
0
0
LINE
5
274
100
AcDbEntity
8
0
100
AcDbLine
10
163.69783172903877
20
91.400105620011388
30
0
11
163.69783172903874
21
92.500103076879881
31
0
0
LINE
5
275
100
AcDbEntity
8
0
100
AcDbLine
10
170.99783834118068
20
91.400105620011388
30
0
11
163.69783172903877
21
91.400105620011388
31
0
0
LINE
5
276
100
AcDbEntity
8
0
100
AcDbLine
10
170.99783834118068
20
88.000103204036449
30
0
11
170.99783834118068
21
91.400105620011388
31
0
0
LINE
5
277
100
AcDbEntity
8
0
100
AcDbLine
10
163.69783172903874
20
88.000103204036449
30
0
11
170.99783834118068
21
88.000103204036449
31
0
0
LINE
5
278
100
AcDbEntity
8
0
100
AcDbLine
10
163.69783172903874
20
86.900105747167956
30
0
11
163.69783172903874
21
88.000103204036449
31
0
0
LINE
5
279
100
AcDbEntity
8
0
100
AcDbLine
10
160.49783325491762
20
86.900105747167956
30
0
11
163.69783172903874
21
86.900105747167956
31
0
0
LINE
5
280
100
AcDbEntity
8
0
100
AcDbLine
10
160.49783325491762
20
88.000103204036449
30
0
11
160.49783325491762
21
86.900105747167956
31
0
0
LINE
5
281
100
AcDbEntity
8
0
100
AcDbLine
10
154.99791056611556
20
88.000103204036449
30
0
11
160.49783325491762
21
88.000103204036449
31
0
0
LINE
5
282
100
AcDbEntity
8
0
100
AcDbLine
10
154.99791056611565
20
74.250173306087262
30
0
11
154.99791056611556
21
88.000103204036449
31
0
0
LINE
5
283
100
AcDbEntity
8
0
100
AcDbLine
10
149.49798787731353
20
74.250173306087191
30
0
11
154.99791056611565
21
74.250173306087262
31
0
0
LINE
5
284
100
AcDbEntity
8
0
100
AcDbLine
10
149.49798787731353
20
68.75025061728509
30
0
11
149.49798787731353
21
74.250173306087191
31
0
0
LINE
5
285
100
AcDbEntity
8
0
100
AcDbLine
10
154.99791056611556
20
68.750250617285133
30
0
11
149.49798787731353
21
68.75025061728509
31
0
0
LINE
5
286
100
AcDbEntity
8
0
100
AcDbLine
10
154.99791056611559
20
60.950108140112306
30
0
11
154.99791056611556
21
68.750250617285133
31
0
0
LINE
5
287
100
AcDbEntity
8
0
100
AcDbLine
10
160.49783325491762
20
60.950108140112306
30
0
11
154.99791056611559
21
60.950108140112306
31
0
0
LINE
5
288
100
AcDbEntity
8
0
100
AcDbLine
10
160.49783325491762
20
62.050105596980799
30
0
11
160.49783325491762
21
60.950108140112306
31
0
0
LINE
5
289
100
AcDbEntity
8
0
100
AcDbLine
10
163.69783172903874
20
62.050105596980799
30
0
11
160.49783325491762
21
62.050105596980799
31
0
0
LINE
5
290
100
AcDbEntity
8
0
100
AcDbLine
10
163.69783172903877
20
60.950108140112306
30
0
11
163.69783172903874
21
62.050105596980799
31
0
0
LINE
5
291
100
AcDbEntity
8
0
100
AcDbLine
10
170.99783834118068
20
60.950108140112334
30
0
11
163.69783172903877
21
60.950108140112306
31
0
0
LINE
5
292
100
AcDbEntity
8
0
100
AcDbLine
10
170.99783834118068
20
57.550105724137396
30
0
11
170.99783834118068
21
60.950108140112334
31
0
0
LINE
5
293
100
AcDbEntity
8
0
100
AcDbLine
10
163.69783172903874
20
57.550105724137396
30
0
11
170.99783834118068
21
57.550105724137396
31
0
0
LINE
5
294
100
AcDbEntity
8
0
100
AcDbLine
10
163.69783172903874
20
56.450108267268902
30
0
11
163.69783172903874
21
57.550105724137396
31
0
0
LINE
5
295
100
AcDbEntity
8
0
100
AcDbLine
10
160.49783325491762
20
56.450108267268902
30
0
11
163.69783172903874
21
56.450108267268902
31
0
0
LINE
5
296
100
AcDbEntity
8
0
100
AcDbLine
10
160.49783325491762
20
57.550105724137396
30
0
11
160.49783325491762
21
56.450108267268902
31
0
0
LINE
5
297
100
AcDbEntity
8
0
100
AcDbLine
10
154.99791056611556
20
57.550105724137396
30
0
11
160.49783325491762
21
57.550105724137396
31
0
0
LINE
5
298
100
AcDbEntity
8
0
100
AcDbLine
10
154.99791056611559
20
-98.999881207781556
30
0
11
154.99791056611556
21
57.550105724137396
31
0
0
LINE
5
299
100
AcDbEntity
8
0
100
AcDbLine
10
160.49783325491762
20
-98.999881207781598
30
0
11
154.99791056611559
21
-98.999881207781556
31
0
0
LINE
5
300
100
AcDbEntity
8
0
100
AcDbLine
10
160.49783325491762
20
-97.899883750913105
30
0
11
160.49783325491762
21
-98.999881207781598
31
0
0
LINE
5
301
100
AcDbEntity
8
0
100
AcDbLine
10
163.69783172903874
20
-97.899883750913062
30
0
11
160.49783325491762
21
-97.899883750913105
31
0
0
LINE
5
302
100
AcDbEntity
8
0
100
AcDbLine
10
163.69783172903877
20
-98.999881207781556
30
0
11
163.69783172903874
21
-97.899883750913062
31
0
0
LINE
5
303
100
AcDbEntity
8
0
100
AcDbLine
10
170.99783834118068
20
-98.999881207781556
30
0
11
163.69783172903877
21
-98.999881207781556
31
0
0
LINE
5
304
100
AcDbEntity
8
0
100
AcDbLine
10
170.99783834118068
20
-102.39988362375649
30
0
11
170.99783834118068
21
-98.999881207781556
31
0
0
LINE
5
305
100
AcDbEntity
8
0
100
AcDbLine
10
163.69783172903874
20
-102.39988362375649
30
0
11
170.99783834118068
21
-102.39988362375649
31
0
0
LINE
5
306
100
AcDbEntity
8
0
100
AcDbLine
10
163.69783172903874
20
-103.49988108062499
30
0
11
163.69783172903874
21
-102.39988362375649
31
0
0
LINE
5
307
100
AcDbEntity
8
0
100
AcDbLine
10
160.49783325491762
20
-103.49988108062499
30
0
11
163.69783172903874
21
-103.49988108062499
31
0
0
LINE
5
308
100
AcDbEntity
8
0
100
AcDbLine
10
160.49783325491762
20
-102.39988362375649
30
0
11
160.49783325491762
21
-103.49988108062499
31
0
0
LINE
5
309
100
AcDbEntity
8
0
100
AcDbLine
10
154.99791056611556
20
-102.39988362375649
30
0
11
160.49783325491762
21
-102.39988362375649
31
0
0
LINE
5
310
100
AcDbEntity
8
0
100
AcDbLine
10
154.99791056611556
20
-104.34989090798341
30
0
11
154.99791056611556
21
-102.39988362375649
31
0
0
LINE
5
311
100
AcDbEntity
8
0
100
AcDbLine
10
149.49798787731345
20
-104.34989090798341
30
0
11
154.99791056611556
21
-104.34989090798341
31
0
0
LINE
5
312
100
AcDbEntity
8
0
100
AcDbLine
10
149.49798787731345
20
-119.14989192523601
30
0
11
149.49798787731345
21
-104.34989090798341
31
0
0
LINE
5
313
100
AcDbEntity
8
0
100
AcDbLine
10
154.99791056611556
20
-119.14989192523605
30
0
11
149.49798787731345
21
-119.14989192523601
31
0
0
LINE
5
314
100
AcDbEntity
8
0
100
AcDbLine
10
154.99791056611556
20
-121.09988883717611
30
0
11
154.99791056611556
21
-119.14989192523605
31
0
0
LINE
5
315
100
AcDbEntity
8
0
100
AcDbLine
10
160.49783325491762
20
-121.09988883717611
30
0
11
154.99791056611556
21
-121.09988883717611
31
0
0
LINE
5
316
100
AcDbEntity
8
0
100
AcDbLine
10
160.49783325491762
20
-119.99989138030762
30
0
11
160.49783325491762
21
-121.09988883717611
31
0
0
LINE
5
317
100
AcDbEntity
8
0
100
AcDbLine
10
163.69783172903874
20
-119.99989138030762
30
0
11
160.49783325491762
21
-119.99989138030762
31
0
0
LINE
5
318
100
AcDbEntity
8
0
100
AcDbLine
10
163.69783172903877
20
-121.09988883717611
30
0
11
163.69783172903874
21
-119.99989138030762
31
0
0
LINE
5
319
100
AcDbEntity
8
0
100
AcDbLine
10
170.99783834118068
20
-121.09988883717611
30
0
11
163.69783172903877
21
-121.09988883717611
31
0
0
LINE
5
320
100
AcDbEntity
8
0
100
AcDbLine
10
170.99783834118068
20
-124.49989125315105
30
0
11
170.99783834118068
21
-121.09988883717611
31
0
0
LINE
5
321
100
AcDbEntity
8
0
100
AcDbLine
10
163.69783172903874
20
-124.49989125315105
30
0
11
170.99783834118068
21
-124.49989125315105
31
0
0
LINE
5
322
100
AcDbEntity
8
0
100
AcDbLine
10
163.69783172903874
20
-125.59988871001954
30
0
11
163.69783172903874
21
-124.49989125315105
31
0
0
LINE
5
323
100
AcDbEntity
8
0
100
AcDbLine
10
160.49783325491762
20
-125.59988871001954
30
0
11
163.69783172903874
21
-125.59988871001954
31
0
0
LINE
5
324
100
AcDbEntity
8
0
100
AcDbLine
10
160.49783325491762
20
-124.49989125315105
30
0
11
160.49783325491762
21
-125.59988871001954
31
0
0
LINE
5
325
100
AcDbEntity
8
0
100
AcDbLine
10
154.99791056611556
20
-124.49989125315105
30
0
11
160.49783325491762
21
-124.49989125315105
31
0
0
LINE
5
326
100
AcDbEntity
8
0
100
AcDbLine
10
154.99791056611556
20
-145.74983483193361
30
0
11
154.99791056611556
21
-124.49989125315105
31
0
0
LINE
5
327
100
AcDbEntity
8
0
100
AcDbLine
10
161.99800008434471
20
-145.74983483193361
30
0
11
154.99791056611556
21
-145.74983483193361
31
0
0
LINE
5
328
100
AcDbEntity
8
0
100
AcDbLine
10
161.99800008434471
20
-151.24975752073573
30
0
11
161.99800008434471
21
-145.74983483193361
31
0
0
LINE
5
329
100
AcDbEntity
8
0
100
AcDbLine
10
170.99796753226138
20
-151.24975752073573
30
0
11
161.99800008434471
21
-151.24975752073573
31
0
0
LINE
5
330
100
AcDbEntity
8
0
100
AcDbLine
10
170.99796753226144
20
-145.74983483193361
30
0
11
170.99796753226138
21
-151.24975752073573
31
0
0
LINE
5
331
100
AcDbEntity
8
0
100
AcDbLine
10
181.49784342744368
20
-145.74983483193361
30
0
11
170.99796753226144
21
-145.74983483193361
31
0
0
LINE
5
332
100
AcDbEntity
8
0
100
AcDbLine
10
181.49784342744368
20
-140.24983139870608
30
0
11
181.49784342744368
21
-145.74983483193361
31
0
0
LINE
5
333
100
AcDbEntity
8
0
100
AcDbLine
10
180.39784597057519
20
-140.24983139870608
30
0
11
181.49784342744368
21
-140.24983139870608
31
0
0
LINE
5
334
100
AcDbEntity
8
0
100
AcDbLine
10
180.39784597057519
20
-137.04983292458499
30
0
11
180.39784597057519
21
-140.24983139870608
31
0
0
LINE
5
335
100
AcDbEntity
8
0
100
AcDbLine
10
181.49784342744368
20
-137.04983292458499
30
0
11
180.39784597057519
21
-137.04983292458499
31
0
0
LINE
5
336
100
AcDbEntity
8
0
100
AcDbLine
10
181.49784342744368
20
-129.74982631244308
30
0
11
181.49784342744368
21
-137.04983292458499
31
0
0
LINE
5
337
100
AcDbEntity
8
0
100
AcDbLine
10
184.89784584341862
20
-129.74982631244308
30
0
11
181.49784342744368
21
-129.74982631244308
31
0
0
LINE
5
338
100
AcDbEntity
8
0
100
AcDbLine
10
184.89784584341862
20
-137.04983292458499
30
0
11
184.89784584341862
21
-129.74982631244308
31
0
0
LINE
5
339
100
AcDbEntity
8
0
100
AcDbLine
10
185.99785137472966
20
-137.04983292458499
30
0
11
184.89784584341862
21
-137.04983292458499
31
0
0
LINE
5
340
100
AcDbEntity
8
0
100
AcDbLine
10
185.99785137472966
20
-140.24983139870608
30
0
11
185.99785137472966
21
-137.04983292458499
31
0
0
LINE
5
341
100
AcDbEntity
8
0
100
AcDbLine
10
184.89784584341862
20
-140.24983139870608
30
0
11
185.99785137472966
21
-140.24983139870608
31
0
0
LINE
5
342
100
AcDbEntity
8
0
100
AcDbLine
10
184.89784584341862
20
-145.74983483193361
30
0
11
184.89784584341862
21
-140.24983139870608
31
0
0
CIRCLE
5
343
100
AcDbEntity
8
0
100
AcDbCircle
10
131.00012143006896
20
114.8000592447916
30
0
40
1.6000000014583371
0
CIRCLE
5
344
100
AcDbEntity
8
0
100
AcDbCircle
10
107.00010063840236
20
114.8000592447916
30
0
40
1.6000000014583371
0
CIRCLE
5
345
100
AcDbEntity
8
0
100
AcDbCircle
10
-119.24985987618102
20
139.00009974479167
30
0
40
7.5000000812499934
0
CIRCLE
5
346
100
AcDbEntity
8
0
100
AcDbCircle
10
-87.249857994931048
20
89.500103494791659
30
0
40
1.6000000014583371
0
LWPOLYLINE
5
347
100
AcDbEntity
8
0
100
AcDbPolyline
90
4
70
1
43
0.0
10
-54.354008993304738
20
139.61628453428969
10
-54.405516458885323
20
141.06838738718406
42
-0.99999999999999989
10
-46.792031125033226
20
141.33844493372769
10
-46.740523659452641
20
139.88634208083332
42
-0.99999999999999989
0
CIRCLE
5
348
100
AcDbEntity
8
0
100
AcDbCircle
10
87.000111534235671
20
111.50011505729162
30
0
40
1.6000000014583371
0
LWPOLYLINE
5
349
100
AcDbEntity
8
0
100
AcDbPolyline
90
4
70
1
43
0.0
10
-84.249857115764371
20
-104.84989224107748
10
-84.249857115764371
20
-120.8498927848275
10
-90.249861255347696
20
-120.8498927848275
10
-90.249861255347696
20
-104.84989224107748
0
LINE
5
350
100
AcDbEntity
8
0
100
AcDbLine
10
53.854535222713551
20
139.61628453428969
30
0
11
53.906042688294136
21
141.06838738718406
31
0
0
ARC
5
351
100
AcDbEntity
8
0
100
AcDbCircle
10
50.047792555787503
20
139.7513133075615
30
0
40
3.8091367134570708
100
AcDbArc
50
177.96851606360249
51
357.96851606360252
0
LINE
5
352
100
AcDbEntity
8
0
100
AcDbLine
10
46.292557354442053
20
141.33844493372769
30
0
11
46.241049888861454
21
139.88634208083332
31
0
0
ARC
5
353
100
AcDbEntity
8
0
100
AcDbCircle
10
50.099300021368087
20
141.20341616045587
30
0
40
3.8091367134570708
100
AcDbArc
50
-2.0314839363974975
51
177.96851606360232
0
CIRCLE
5
354
100
AcDbEntity
8
0
100
AcDbCircle
10
-87.24985376159772
20
-123.84990451191085
30
0
40
1.6000000014583193
0
CIRCLE
5
355
100
AcDbEntity
8
0
100
AcDbCircle
10
-107.24984948034768
20
115.000094828125
30
0
40
1.6000000014583371
0
LWPOLYLINE
5
356
100
AcDbEntity
8
0
100
AcDbPolyline
90
4
70
1
43
0.0
10
-84.249866111597697
20
108.15010667604164
10
-84.249866111597697
20
92.850106848958319
10
-90.24985225951437
20
92.850106848958319
10
-90.24985225951437
20
108.15010667604164
0
LWPOLYLINE
5
357
100
AcDbEntity
8
0
100
AcDbPolyline
90
4
70
1
43
0.0
10
90.000101036319009
20
108.15010667604164
10
90.000101036318966
20
92.850106848958319
10
84.000114888402322
20
92.850106848958319
10
84.000114888402351
20
108.15010667604164
0
LWPOLYLINE
5
358
100
AcDbEntity
8
0
100
AcDbPolyline
90
4
70
1
43
0.0
10
125.10011338631898
20
111.80006524479163
10
112.90011318006901
20
111.80006524479163
10
112.90011318006901
20
117.80006382812493
10
125.10011338631898
20
117.80006382812493
0
CIRCLE
5
359
100
AcDbEntity
8
0
100
AcDbCircle
10
-87.249859185556033
20
58.750105599030803
30
0
40
1.7000012079874693
0
LWPOLYLINE
5
360
100
AcDbEntity
8
0
100
AcDbPolyline
90
19
70
1
43
0.0
10
-90.249859185556033
20
74.250210610883812
10
-83.999979294651268
20
74.250210610883812
10
-83.999979294651268
20
82.497277004804289
10
-73.999979686737049
20
82.500077311197884
10
-49.000059004686527
20
129.50029396748855
10
0
20
129.50029572090861
10
49.000059004686527
20
129.50029396748855
10
73.999979686737049
20
82.500077311197884
10
83.999979294651268
20
82.497277004804289
10
83.999979294651268
20
74.250210610883812
10
90.249859185556033
20
74.250210610883812
10
90.249859185556033
20
67.750210646300474
10
83.999979294651268
20
67.751960804230919
10
83.999979294651297
20
-94.849969272524589
10
62.786775859054877
20
-116.063172708121
10
-62.786775859054806
20
-116.063172708121
10
-83.99997929465124
20
-94.849969272524589
10
-83.999979294651268
20
67.751960804230876
10
-90.249859185556033
20
67.750210646300474
0
CIRCLE
5
361
100
AcDbEntity
8
0
100
AcDbCircle
10
-87.249859185556033
20
78.750105599030803
30
0
40
1.7000012079874693
0
CIRCLE
5
362
100
AcDbEntity
8
0
100
AcDbCircle
10
-87.249857994931006
20
111.50011505729167
30
0
40
1.6000000014583371
0
CIRCLE
5
363
100
AcDbEntity
8
0
100
AcDbCircle
10
86.750179238402367
20
-101.84989030357747
30
0
40
1.6000000014583549
0
CIRCLE
5
364
100
AcDbEntity
8
0
100
AcDbCircle
10
119.00011103423569
20
139.00009974479158
30
0
40
7.5000000812499934
0
CIRCLE
5
365
100
AcDbEntity
8
0
100
AcDbCircle
10
-131.24986947826434
20
115.000094828125
30
0
40
1.6000000014583371
0
CIRCLE
5
366
100
AcDbEntity
8
0
100
AcDbCircle
10
86.750179238402367
20
-123.84990451191078
30
0
40
1.6000000014583549
0
CIRCLE
5
367
100
AcDbEntity
8
0
100
AcDbCircle
10
87.000111534235671
20
89.500103494791631
30
0
40
1.6000000014583371
0
CIRCLE
5
368
100
AcDbEntity
8
0
100
AcDbCircle
10
-87.24985376159772
20
-101.84987442857748
30
0
40
1.6000000014583193
0
LWPOLYLINE
5
369
100
AcDbEntity
8
0
100
AcDbPolyline
90
4
70
1
43
0.0
10
89.750173502985717
20
-104.84989938482747
10
89.750173502985717
20
-120.84989992857749
10
83.750169363402378
20
-120.84989992857749
10
83.750169363402378
20
-104.84989938482747
0
LWPOLYLINE
5
370
100
AcDbEntity
8
0
100
AcDbPolyline
90
4
70
1
43
0.0
10
-113.14985956138935
20
112.00010082812499
10
-125.34985976763936
20
112.00010082812499
10
-125.34985976763936
20
118.00009941145832
10
-113.14985956138935
20
118.00009941145832
0
LWPOLYLINE
5
371
100
AcDbEntity
8
0
100
AcDbPolyline
90
36
70
1
43
0.0
10
135.75023056262108
20
-146.34966041295252
10
135.75023056262108
20
-151.5
10
142.99999999999997
20
-151.5
10
143
20
151.5
10
-143
20
151.5
10
-142.99999999999997
20
-151.5
10
-136.24970433321226
20
-151.5
10
-136.24970433321226
20
-146.34966041295252
10
-116.64985094474386
20
-146.34966041295252
10
-116.64985094474383
20
-140.84965697972498
10
-117.74984840161233
20
-140.84965697972498
10
-117.74984840161233
20
-137.6496585056039
10
-116.64985094474383
20
-137.6496585056039
10
-116.64985094474383
20
-130.34965996790453
10
-113.24984852876889
20
-130.3496599679045
10
-113.24984852876892
20
-137.64965850560384
10
-112.14985107190043
20
-137.6496585056039
10
-112.14985107190043
20
-140.84965697972498
10
-113.24984852876892
20
-140.84965697972498
10
-113.24984852876892
20
-146.34966041295252
10
-93.749972887899759
20
-146.34966041295252
10
-93.749972887899773
20
-151.5
10
93.250499117308578
20
-151.5
10
93.250499117308578
20
-146.34966041295252
10
112.75037475817771
20
-146.34966041295252
10
112.75037475817771
20
-140.84965697972498
10
111.65037730130922
20
-140.84965697972498
10
111.65037730130922
20
-137.6496585056039
10
112.75037475817771
20
-137.64965850560384
10
112.75037475817771
20
-130.3496599679045
10
116.15037717415265
20
-130.34965996790453
10
116.15037717415265
20
-137.6496585056039
10
117.25037463102115
20
-137.6496585056039
10
117.25037463102115
20
-140.84965697972498
10
116.15037717415265
20
-140.84965697972498
10
116.15037717415265
20
-146.34966041295252
0
CIRCLE
5
372
100
AcDbEntity
8
0
100
AcDbCircle
10
-160.74758513957121
20
-95.249881610340154
30
0
40
1.6000000014583549
0
CIRCLE
5
373
100
AcDbEntity
8
0
100
AcDbCircle
10
-164.74758243123796
20
-72.74988163117348
30
0
40
5.9999996416666335
0
CIRCLE
5
374
100
AcDbEntity
8
0
100
AcDbCircle
10
-160.74758513957121
20
104.25010594590989
30
0
40
1.6000000014583371
0
CIRCLE
5
375
100
AcDbEntity
8
0
100
AcDbCircle
10
-201.74758516040455
20
104.25010594590989
30
0
40
1.6000000014583371
0
CIRCLE
5
376
100
AcDbEntity
8
0
100
AcDbCircle
10
-165.74758572290463
20
-85.749879443673493
30
0
40
1.6000000014583549
0
CIRCLE
5
377
100
AcDbEntity
8
0
100
AcDbCircle
10
-165.74758572290463
20
-46.249884360340104
30
0
40
1.6000000014583193
0
CIRCLE
5
378
100
AcDbEntity
8
0
100
AcDbCircle
10
-179.74758682707125
20
131.75010359799325
30
0
40
7.5000000812499934
0
LINE
5
379
100
AcDbEntity
8
0
100
AcDbLine
10
-185.14759706661386
20
-146.24983616502763
30
0
11
-189.74736475155041
21
-146.24983616502763
31
0
0
SPLINE
5
380
100
AcDbEntity
8
0
100
AcDbSpline
70
1064
71
3
72
8
73
4
74
0
42
0.000000001
43
0.0000000001
44
0.0000000001
40
0
40
0
40
0
40
0
40
0.97957037593953888
40
0.97957037593953888
40
0.97957037593953888
40
0.97957037593953888
10
-189.74736475155041
20
-146.24983616502763
30
0
10
-201.70943215733877
20
-58.366871226876512
30
0
10
-206.68212175111694
20
27.778918372980268
30
0
10
-207.21971687907526
20
113.3000993005079
30
0
0
LINE
5
381
100
AcDbEntity
8
0
100
AcDbLine
10
-201.74758317602951
20
113.30009930050785
30
0
11
-207.21971687907526
21
113.30009930050787
31
0
0
LINE
5
382
100
AcDbEntity
8
0
100
AcDbLine
10
-201.74758317602959
20
112.20010184363936
30
0
11
-201.74758317602951
21
113.30009930050785
31
0
0
LINE
5
383
100
AcDbEntity
8
0
100
AcDbLine
10
-198.54758470190845
20
112.20010184363936
30
0
11
-201.74758317602959
21
112.20010184363936
31
0
0
LINE
5
384
100
AcDbEntity
8
0
100
AcDbLine
10
-198.54758470190845
20
113.30009930050785
30
0
11
-198.54758470190845
21
112.20010184363936
31
0
0
LINE
5
385
100
AcDbEntity
8
0
100
AcDbLine
10
-191.24757808976653
20
113.30009930050784
30
0
11
-198.54758470190845
21
113.30009930050785
31
0
0
LINE
5
386
100
AcDbEntity
8
0
100
AcDbLine
10
-191.24757808976653
20
116.70010171648278
30
0
11
-191.24757808976653
21
113.30009930050784
31
0
0
LINE
5
387
100
AcDbEntity
8
0
100
AcDbLine
10
-198.54758470190845
20
116.70010171648278
30
0
11
-191.24757808976653
21
116.70010171648278
31
0
0
LINE
5
388
100
AcDbEntity
8
0
100
AcDbLine
10
-198.54758470190845
20
117.80009917335127
30
0
11
-198.54758470190845
21
116.70010171648278
31
0
0
LINE
5
389
100
AcDbEntity
8
0
100
AcDbLine
10
-201.74758317602951
20
117.80009917335127
30
0
11
-198.54758470190845
21
117.80009917335127
31
0
0
LINE
5
390
100
AcDbEntity
8
0
100
AcDbLine
10
-201.74758317602951
20
116.70010171648278
30
0
11
-201.74758317602951
21
117.80009917335127
31
0
0
LINE
5
391
100
AcDbEntity
8
0
100
AcDbLine
10
-207.23876055686219
20
116.70010171648278
30
0
11
-201.74758317602951
21
116.70010171648278
31
0
0
SPLINE
5
392
100
AcDbEntity
8
0
100
AcDbSpline
70
1064
71
3
72
8
73
4
74
0
42
0.000000001
43
0.0000000001
44
0.0000000001
40
0.99255297466699854
40
0.99255297466699854
40
0.99255297466699854
40
0.99255297466699854
40
1
40
1
40
1
40
1
10
-207.23876055686276
20
116.70010171660149
30
0
10
-207.24195721834806
20
117.35013828003444
30
0
10
-207.24489950766682
20
118.00013959607723
30
0
10
-207.24758854712334
20
118.65010615357082
30
0
0
LINE
5
393
100
AcDbEntity
8
0
100
AcDbLine
10
-207.24758854712337
20
118.65010615357085
30
0
11
-212.7475112359254
21
118.65010615357082
31
0
0
LINE
5
394
100
AcDbEntity
8
0
100
AcDbLine
10
-212.7475112359254
20
118.65010615357082
30
0
11
-212.74751123592546
21
133.45010515221279
31
0
0
LINE
5
395
100
AcDbEntity
8
0
100
AcDbLine
10
-212.74751123592546
20
133.45010515221279
30
0
11
-207.24758854712334
21
133.45010515221279
31
0
0
LINE
5
396
100
AcDbEntity
8
0
100
AcDbLine
10
-207.24758854712334
20
133.45010515221279
30
0
11
-207.24758854712334
21
135.40010692990239
31
0
0
LINE
5
397
100
AcDbEntity
8
0
100
AcDbLine
10
-201.74758317602951
20
135.40010692990239
30
0
11
-207.24758854712334
21
135.40010692990239
31
0
0
LINE
5
398
100
AcDbEntity
8
0
100
AcDbLine
10
-201.74758317602959
20
134.3001094730339
30
0
11
-201.74758317602951
21
135.40010692990239
31
0
0
LINE
5
399
100
AcDbEntity
8
0
100
AcDbLine
10
-198.54758470190845
20
134.3001094730339
30
0
11
-201.74758317602959
21
134.3001094730339
31
0
0
LINE
5
400
100
AcDbEntity
8
0
100
AcDbLine
10
-198.54758470190845
20
135.40010692990239
30
0
11
-198.54758470190845
21
134.3001094730339
31
0
0
LINE
5
401
100
AcDbEntity
8
0
100
AcDbLine
10
-191.24757808976653
20
135.40010692990239
30
0
11
-198.54758470190845
21
135.40010692990239
31
0
0
LINE
5
402
100
AcDbEntity
8
0
100
AcDbLine
10
-191.24757808976653
20
138.80010934587733
30
0
11
-191.24757808976653
21
135.40010692990239
31
0
0
LINE
5
403
100
AcDbEntity
8
0
100
AcDbLine
10
-198.54758470190845
20
138.8001093458773
30
0
11
-191.24757808976653
21
138.80010934587733
31
0
0
LINE
5
404
100
AcDbEntity
8
0
100
AcDbLine
10
-198.54758470190845
20
139.9001068027458
30
0
11
-198.54758470190845
21
138.8001093458773
31
0
0
LINE
5
405
100
AcDbEntity
8
0
100
AcDbLine
10
-201.74758317602951
20
139.90010680274582
30
0
11
-198.54758470190845
21
139.9001068027458
31
0
0
LINE
5
406
100
AcDbEntity
8
0
100
AcDbLine
10
-201.74758317602951
20
138.80010934587733
30
0
11
-201.74758317602951
21
139.90010680274582
31
0
0
LINE
5
407
100
AcDbEntity
8
0
100
AcDbLine
10
-207.2475866092571
20
138.80010934587733
30
0
11
-201.74758317602951
21
138.80010934587733
31
0
0
LINE
5
408
100
AcDbEntity
8
0
100
AcDbLine
10
-207.2475866092571
20
138.80010934587733
30
0
11
-207.24758854712334
21
151.75005807249073
31
0
0
LINE
5
409
100
AcDbEntity
8
0
100
AcDbLine
10
-207.24758854712334
20
151.75005807249073
30
0
11
-191.74775944556086
21
151.75005807249073
31
0
0
LINE
5
410
100
AcDbEntity
8
0
100
AcDbLine
10
-191.74775944556086
20
151.75005807249073
30
0
11
-186.24783675675874
21
146.2501394209099
31
0
0
LINE
5
411
100
AcDbEntity
8
0
100
AcDbLine
10
-186.24783675675874
20
146.2501394209099
30
0
11
-176.24741357967542
21
146.2501394209099
31
0
0
LINE
5
412
100
AcDbEntity
8
0
100
AcDbLine
10
-176.24741357967542
20
146.2501394209099
30
0
11
-170.74749089087334
21
151.7500580724907
31
0
0
LINE
5
413
100
AcDbEntity
8
0
100
AcDbLine
10
-170.74749089087334
20
151.7500580724907
30
0
11
-155.24766178931083
21
151.75005807249073
31
0
0
LINE
5
414
100
AcDbEntity
8
0
100
AcDbLine
10
-155.24766178931083
20
151.75005807249073
30
0
11
-155.24766178931083
21
113.00011191631192
31
0
0
LINE
5
415
100
AcDbEntity
8
0
100
AcDbLine
10
-160.74758447811291
20
113.00011191631192
30
0
11
-155.24766178931083
21
113.00011191631192
31
0
0
LINE
5
416
100
AcDbEntity
8
0
100
AcDbLine
10
-160.74758447811291
20
114.10010937318042
30
0
11
-160.74758447811291
21
113.00011191631192
31
0
0
LINE
5
417
100
AcDbEntity
8
0
100
AcDbLine
10
-163.94758295223403
20
114.10010937318042
30
0
11
-160.74758447811291
21
114.10010937318042
31
0
0
LINE
5
418
100
AcDbEntity
8
0
100
AcDbLine
10
-163.947582952234
20
113.00011191631192
30
0
11
-163.94758295223403
21
114.10010937318042
31
0
0
LINE
5
419
100
AcDbEntity
8
0
100
AcDbLine
10
-171.24758956437597
20
113.00011191631192
30
0
11
-163.947582952234
21
113.00011191631192
31
0
0
LINE
5
420
100
AcDbEntity
8
0
100
AcDbLine
10
-171.24758956437597
20
109.60010950033698
30
0
11
-171.24758956437597
21
113.00011191631192
31
0
0
LINE
5
421
100
AcDbEntity
8
0
100
AcDbLine
10
-163.94758295223403
20
109.60010950033698
30
0
11
-171.24758956437597
21
109.60010950033698
31
0
0
LINE
5
422
100
AcDbEntity
8
0
100
AcDbLine
10
-163.94758295223403
20
108.50011204346849
30
0
11
-163.94758295223403
21
109.60010950033698
31
0
0
LINE
5
423
100
AcDbEntity
8
0
100
AcDbLine
10
-160.74758447811291
20
108.50011204346849
30
0
11
-163.94758295223403
21
108.50011204346849
31
0
0
LINE
5
424
100
AcDbEntity
8
0
100
AcDbLine
10
-160.74758447811291
20
109.60010950033698
30
0
11
-160.74758447811291
21
108.50011204346849
31
0
0
LINE
5
425
100
AcDbEntity
8
0
100
AcDbLine
10
-155.24766178931083
20
109.60010950033698
30
0
11
-160.74758447811291
21
109.60010950033698
31
0
0
LINE
5
426
100
AcDbEntity
8
0
100
AcDbLine
10
-155.24766178931083
20
109.60010950033698
30
0
11
-155.24766178931083
21
107.65010534294767
31
0
0
LINE
5
427
100
AcDbEntity
8
0
100
AcDbLine
10
-155.24766178931083
20
107.65010534294767
30
0
11
-149.74773910050874
21
107.65010534294765
31
0
0
LINE
5
428
100
AcDbEntity
8
0
100
AcDbLine
10
-149.74773910050874
20
107.65010534294765
30
0
11
-149.74773910050877
21
92.850106848958347
31
0
0
LINE
5
429
100
AcDbEntity
8
0
100
AcDbLine
10
-149.74773910050877
20
92.850106848958347
30
0
11
-155.24766178931085
21
92.850106848958347
31
0
0
LINE
5
430
100
AcDbEntity
8
0
100
AcDbLine
10
-155.24766178931085
20
92.850106848958347
30
0
11
-155.24766178931085
21
90.900104286917397
31
0
0
LINE
5
431
100
AcDbEntity
8
0
100
AcDbLine
10
-160.74758447811291
20
90.900104286917383
30
0
11
-155.24766178931085
21
90.900104286917397
31
0
0
LINE
5
432
100
AcDbEntity
8
0
100
AcDbLine
10
-160.74758447811291
20
92.000101743785876
30
0
11
-160.74758447811291
21
90.900104286917383
31
0
0
LINE
5
433
100
AcDbEntity
8
0
100
AcDbLine
10
-163.94758295223403
20
92.000101743785905
30
0
11
-160.74758447811291
21
92.000101743785876
31
0
0
LINE
5
434
100
AcDbEntity
8
0
100
AcDbLine
10
-163.947582952234
20
90.900104286917411
30
0
11
-163.94758295223403
21
92.000101743785905
31
0
0
LINE
5
435
100
AcDbEntity
8
0
100
AcDbLine
10
-171.24758956437597
20
90.900104286917411
30
0
11
-163.947582952234
21
90.900104286917411
31
0
0
LINE
5
436
100
AcDbEntity
8
0
100
AcDbLine
10
-171.24758956437597
20
87.500101870942473
30
0
11
-171.24758956437597
21
90.900104286917411
31
0
0
LINE
5
437
100
AcDbEntity
8
0
100
AcDbLine
10
-163.94758295223403
20
87.500101870942473
30
0
11
-171.24758956437597
21
87.500101870942473
31
0
0
LINE
5
438
100
AcDbEntity
8
0
100
AcDbLine
10
-163.94758295223403
20
86.400104414073979
30
0
11
-163.94758295223403
21
87.500101870942473
31
0
0
LINE
5
439
100
AcDbEntity
8
0
100
AcDbLine
10
-160.74758447811291
20
86.400104414073979
30
0
11
-163.94758295223403
21
86.400104414073979
31
0
0
LINE
5
440
100
AcDbEntity
8
0
100
AcDbLine
10
-160.74758447811291
20
87.500101870942473
30
0
11
-160.74758447811291
21
86.400104414073979
31
0
0
LINE
5
441
100
AcDbEntity
8
0
100
AcDbLine
10
-155.24766178931085
20
87.500101870942473
30
0
11
-160.74758447811291
21
87.500101870942473
31
0
0
LINE
5
442
100
AcDbEntity
8
0
100
AcDbLine
10
-155.24766178931085
20
87.500101870942473
30
0
11
-155.24766178931085
21
73.750171972993201
31
0
0
LINE
5
443
100
AcDbEntity
8
0
100
AcDbLine
10
-155.24766178931085
20
73.750171972993201
30
0
11
-149.74773910050874
21
73.750171972993201
31
0
0
LINE
5
444
100
AcDbEntity
8
0
100
AcDbLine
10
-149.74773910050874
20
73.750171972993201
30
0
11
-149.74773910050877
21
68.250249284191099
31
0
0
LINE
5
445
100
AcDbEntity
8
0
100
AcDbLine
10
-149.74773910050877
20
68.250249284191099
30
0
11
-155.24766178931085
21
68.250249284191128
31
0
0
LINE
5
446
100
AcDbEntity
8
0
100
AcDbLine
10
-155.24766178931085
20
68.250249284191128
30
0
11
-155.24766178931085
21
60.450106807018273
31
0
0
LINE
5
447
100
AcDbEntity
8
0
100
AcDbLine
10
-160.74758447811291
20
60.450106807018273
30
0
11
-155.24766178931085
21
60.450106807018273
31
0
0
LINE
5
448
100
AcDbEntity
8
0
100
AcDbLine
10
-160.74758447811291
20
61.550104263886766
30
0
11
-160.74758447811291
21
60.450106807018273
31
0
0
LINE
5
449
100
AcDbEntity
8
0
100
AcDbLine
10
-163.94758295223403
20
61.550104263886766
30
0
11
-160.74758447811291
21
61.550104263886766
31
0
0
LINE
5
450
100
AcDbEntity
8
0
100
AcDbLine
10
-163.947582952234
20
60.450106807018273
30
0
11
-163.94758295223403
21
61.550104263886766
31
0
0
LINE
5
451
100
AcDbEntity
8
0
100
AcDbLine
10
-171.24758956437597
20
60.450106807018273
30
0
11
-163.947582952234
21
60.450106807018273
31
0
0
LINE
5
452
100
AcDbEntity
8
0
100
AcDbLine
10
-171.24758956437597
20
57.050104391043334
30
0
11
-171.24758956437597
21
60.450106807018273
31
0
0
LINE
5
453
100
AcDbEntity
8
0
100
AcDbLine
10
-163.94758295223403
20
57.050104391043334
30
0
11
-171.24758956437597
21
57.050104391043334
31
0
0
LINE
5
454
100
AcDbEntity
8
0
100
AcDbLine
10
-163.94758295223403
20
55.95010693417484
30
0
11
-163.94758295223403
21
57.050104391043334
31
0
0
LINE
5
455
100
AcDbEntity
8
0
100
AcDbLine
10
-160.74758447811291
20
55.95010693417484
30
0
11
-163.94758295223403
21
55.95010693417484
31
0
0
LINE
5
456
100
AcDbEntity
8
0
100
AcDbLine
10
-160.74758447811291
20
57.050104391043334
30
0
11
-160.74758447811291
21
55.95010693417484
31
0
0
LINE
5
457
100
AcDbEntity
8
0
100
AcDbLine
10
-155.24766178931085
20
57.050104391043334
30
0
11
-160.74758447811291
21
57.050104391043334
31
0
0
LINE
5
458
100
AcDbEntity
8
0
100
AcDbLine
10
-155.24766178931085
20
57.050104391043334
30
0
11
-155.24766178931083
21
-99.499882540875632
31
0
0
LINE
5
459
100
AcDbEntity
8
0
100
AcDbLine
10
-160.74758447811291
20
-99.499882540875632
30
0
11
-155.24766178931083
21
-99.499882540875632
31
0
0
LINE
5
460
100
AcDbEntity
8
0
100
AcDbLine
10
-160.74758447811291
20
-98.399885084007138
30
0
11
-160.74758447811291
21
-99.499882540875632
31
0
0
LINE
5
461
100
AcDbEntity
8
0
100
AcDbLine
10
-163.94758295223403
20
-98.399885084007138
30
0
11
-160.74758447811291
21
-98.399885084007138
31
0
0
LINE
5
462
100
AcDbEntity
8
0
100
AcDbLine
10
-163.947582952234
20
-99.499882540875632
30
0
11
-163.94758295223403
21
-98.399885084007138
31
0
0
LINE
5
463
100
AcDbEntity
8
0
100
AcDbLine
10
-171.24758956437597
20
-99.499882540875632
30
0
11
-163.947582952234
21
-99.499882540875632
31
0
0
LINE
5
464
100
AcDbEntity
8
0
100
AcDbLine
10
-171.24758956437597
20
-102.89988495685057
30
0
11
-171.24758956437597
21
-99.499882540875632
31
0
0
LINE
5
465
100
AcDbEntity
8
0
100
AcDbLine
10
-163.94758295223403
20
-102.89988495685057
30
0
11
-171.24758956437597
21
-102.89988495685057
31
0
0
LINE
5
466
100
AcDbEntity
8
0
100
AcDbLine
10
-163.94758295223403
20
-103.99988241371906
30
0
11
-163.94758295223403
21
-102.89988495685057
31
0
0
LINE
5
467
100
AcDbEntity
8
0
100
AcDbLine
10
-160.74758447811291
20
-103.99988241371906
30
0
11
-163.94758295223403
21
-103.99988241371906
31
0
0
LINE
5
468
100
AcDbEntity
8
0
100
AcDbLine
10
-160.74758447811291
20
-102.89988495685057
30
0
11
-160.74758447811291
21
-103.99988241371906
31
0
0
LINE
5
469
100
AcDbEntity
8
0
100
AcDbLine
10
-155.24766178931083
20
-102.89988495685057
30
0
11
-160.74758447811291
21
-102.89988495685057
31
0
0
LINE
5
470
100
AcDbEntity
8
0
100
AcDbLine
10
-155.24766178931083
20
-102.89988495685057
30
0
11
-155.24766178931083
21
-104.84989224107748
31
0
0
LINE
5
471
100
AcDbEntity
8
0
100
AcDbLine
10
-155.24766178931083
20
-104.84989224107748
30
0
11
-149.74773910050874
21
-104.84989224107748
31
0
0
LINE
5
472
100
AcDbEntity
8
0
100
AcDbLine
10
-149.74773910050874
20
-104.84989224107748
30
0
11
-149.74773910050877
21
-119.64989325833008
31
0
0
LINE
5
473
100
AcDbEntity
8
0
100
AcDbLine
10
-149.74773910050877
20
-119.64989325833008
30
0
11
-155.24766178931085
21
-119.64989325833008
31
0
0
LINE
5
474
100
AcDbEntity
8
0
100
AcDbLine
10
-155.24766178931085
20
-119.64989325833008
30
0
11
-155.24766178931085
21
-121.59989017027014
31
0
0
LINE
5
475
100
AcDbEntity
8
0
100
AcDbLine
10
-160.74758447811291
20
-121.59989017027021
30
0
11
-155.24766178931085
21
-121.59989017027014
31
0
0
LINE
5
476
100
AcDbEntity
8
0
100
AcDbLine
10
-160.74758447811291
20
-120.49989271340172
30
0
11
-160.74758447811291
21
-121.59989017027021
31
0
0
LINE
5
477
100
AcDbEntity
8
0
100
AcDbLine
10
-163.94758295223403
20
-120.49989271340165
30
0
11
-160.74758447811291
21
-120.49989271340172
31
0
0
LINE
5
478
100
AcDbEntity
8
0
100
AcDbLine
10
-163.947582952234
20
-121.59989017027014
30
0
11
-163.94758295223403
21
-120.49989271340165
31
0
0
LINE
5
479
100
AcDbEntity
8
0
100
AcDbLine
10
-171.24758956437597
20
-121.59989017027014
30
0
11
-163.947582952234
21
-121.59989017027014
31
0
0
LINE
5
480
100
AcDbEntity
8
0
100
AcDbLine
10
-171.24758956437597
20
-124.99989258624508
30
0
11
-171.24758956437597
21
-121.59989017027014
31
0
0
LINE
5
481
100
AcDbEntity
8
0
100
AcDbLine
10
-163.94758295223403
20
-124.99989258624508
30
0
11
-171.24758956437597
21
-124.99989258624508
31
0
0
LINE
5
482
100
AcDbEntity
8
0
100
AcDbLine
10
-163.94758295223403
20
-126.09989004311358
30
0
11
-163.94758295223403
21
-124.99989258624508
31
0
0
LINE
5
483
100
AcDbEntity
8
0
100
AcDbLine
10
-160.74758447811291
20
-126.09989004311358
30
0
11
-163.94758295223403
21
-126.09989004311358
31
0
0
LINE
5
484
100
AcDbEntity
8
0
100
AcDbLine
10
-160.74758447811291
20
-124.99989258624508
30
0
11
-160.74758447811291
21
-126.09989004311358
31
0
0
LINE
5
485
100
AcDbEntity
8
0
100
AcDbLine
10
-155.24766178931085
20
-124.99989258624508
30
0
11
-160.74758447811291
21
-124.99989258624508
31
0
0
LINE
5
486
100
AcDbEntity
8
0
100
AcDbLine
10
-155.24766178931085
20
-124.99989258624508
30
0
11
-155.24766178931083
21
-146.24983616502766
31
0
0
LINE
5
487
100
AcDbEntity
8
0
100
AcDbLine
10
-155.24766178931083
20
-146.24983616502766
30
0
11
-162.24775130754
21
-146.24983616502763
31
0
0
LINE
5
488
100
AcDbEntity
8
0
100
AcDbLine
10
-162.24775130754
20
-146.24983616502763
30
0
11
-162.24775130754
21
-151.74975885382972
31
0
0
LINE
5
489
100
AcDbEntity
8
0
100
AcDbLine
10
-162.24775130754
20
-151.74975885382972
30
0
11
-171.24771875545662
21
-151.74975885382972
31
0
0
LINE
5
490
100
AcDbEntity
8
0
100
AcDbLine
10
-171.24771875545662
20
-151.74975885382972
30
0
11
-171.24771875545667
21
-146.24983616502763
31
0
0
LINE
5
491
100
AcDbEntity
8
0
100
AcDbLine
10
-171.24771875545667
20
-146.24983616502763
30
0
11
-181.74759465063897
21
-146.24983616502763
31
0
0
LINE
5
492
100
AcDbEntity
8
0
100
AcDbLine
10
-181.74759465063892
20
-140.74983273180015
30
0
11
-181.74759465063897
21
-146.24983616502763
31
0
0
LINE
5
493
100
AcDbEntity
8
0
100
AcDbLine
10
-180.64759719377042
20
-140.74983273180015
30
0
11
-181.74759465063892
21
-140.74983273180015
31
0
0
LINE
5
494
100
AcDbEntity
8
0
100
AcDbLine
10
-180.64759719377042
20
-137.54983425767909
30
0
11
-180.64759719377042
21
-140.74983273180015
31
0
0
LINE
5
495
100
AcDbEntity
8
0
100
AcDbLine
10
-181.74759465063892
20
-137.54983425767901
30
0
11
-180.64759719377042
21
-137.54983425767909
31
0
0
LINE
5
496
100
AcDbEntity
8
0
100
AcDbLine
10
-181.74759465063892
20
-130.2498276455371
30
0
11
-181.74759465063892
21
-137.54983425767901
31
0
0
LINE
5
497
100
AcDbEntity
8
0
100
AcDbLine
10
-185.14759706661386
20
-130.24982764553718
30
0
11
-181.74759465063892
21
-130.2498276455371
31
0
0
LINE
5
498
100
AcDbEntity
8
0
100
AcDbLine
10
-185.14759706661391
20
-137.54983425767909
30
0
11
-185.14759706661386
21
-130.24982764553718
31
0
0
LINE
5
499
100
AcDbEntity
8
0
100
AcDbLine
10
-186.24760259792495
20
-137.54983425767909
30
0
11
-185.14759706661391
21
-137.54983425767909
31
0
0
LINE
5
500
100
AcDbEntity
8
0
100
AcDbLine
10
-186.24760259792492
20
-140.74983273180015
30
0
11
-186.24760259792495
21
-137.54983425767909
31
0
0
LINE
5
501
100
AcDbEntity
8
0
100
AcDbLine
10
-185.14759706661386
20
-140.74983273180015
30
0
11
-186.24760259792492
21
-140.74983273180015
31
0
0
LINE
5
502
100
AcDbEntity
8
0
100
AcDbLine
10
-185.14759706661386
20
-146.24983616502763
30
0
11
-185.14759706661386
21
-140.74983273180015
31
0
0
LWPOLYLINE
5
503
100
AcDbEntity
8
0
100
AcDbPolyline
90
8
70
1
43
0.0
10
-38.190075825930769
20
-66.260215902652874
10
-38.390075690514124
20
-66.260215902652874
42
0.41421356237308204
10
-39.89007573322241
20
-67.760215945361168
10
-39.890075733222439
20
-69.460215720361148
42
0.41421356237308549
10
-38.390075690514109
20
-70.960215763069471
10
-38.190075825930791
20
-70.960215763069513
42
0.4142135623731002
10
-36.690075783222447
20
-69.460215720361148
10
-36.690075783222476
20
-67.760215945361168
42
0.41421356237309681
0
LWPOLYLINE
5
504
100
AcDbEntity
8
0
100
AcDbPolyline
90
8
70
1
43
0.0
10
-38.190075825930805
20
-97.060224152652793
10
-38.390075690514166
20
-97.060224152652793
42
0.41421356237310542
10
-39.89007573322251
20
-98.560224195361116
10
-39.890075733222474
20
-100.26022397036114
42
0.41421356237309509
10
-38.390075690514216
20
-101.76022401306946
10
-38.190075825930819
20
-101.76022401306946
42
0.41421356237309331
10
-36.690075783222483
20
-100.26022397036115
10
-36.690075783222511
20
-98.560224195361187
42
0.41421356237310802
0
LWPOLYLINE
5
505
100
AcDbEntity
8
0
100
AcDbPolyline
90
8
70
1
43
0.0
10
-7.1900782946808306
20
-97.06021621515282
10
-7.3900781592641707
20
-97.06021621515282
42
0.41421356237308787
10
-8.8900782019724627
20
-98.560216257861114
10
-8.8900782019725
20
-100.26021603286112
42
0.41421356237310175
10
-7.3900781592641351
20
-101.76021607556949
10
-7.1900782946807951
20
-101.76021607556946
42
0.41421356237308787
10
-5.6900782519725022
20
-100.26021603286117
10
-5.6900782519724658
20
-98.560216257861143
42
0.41421356237310175
0
LWPOLYLINE
5
506
100
AcDbEntity
8
0
100
AcDbPolyline
90
8
70
1
43
0.0
10
-7.1900782946807951
20
-66.260215902652831
10
-7.3900781592641351
20
-66.260215902652831
42
0.41421356237309093
10
-8.8900782019724254
20
-67.760215945361168
10
-8.8900782019724645
20
-69.460215720361148
42
0.41421356237309781
10
-7.3900781592640996
20
-70.960215763069471
10
-7.1900782946807595
20
-70.960215763069471
42
0.41421356237309093
10
-5.6900782519724693
20
-69.460215720361148
10
-5.6900782519724302
20
-67.760215945361168
42
0.41421356237309781
0
CIRCLE
5
507
100
AcDbEntity
8
0
100
AcDbCircle
10
-22.790076595722475
20
-84.010220090152842
30
0
40
11.199999824999995
0
CIRCLE
5
508
100
AcDbEntity
8
0
100
AcDbCircle
10
-22.79007659572251
20
-101.26021734015281
30
0
40
3.0000000854166586
0
LINE
5
509
100
AcDbEntity
8
0
100
AcDbLine
10
-57.189850897805847
20
-94.210283918603338
30
0
11
-57.189850897805847
21
-89.960358771142396
31
0
0
LINE
5
510
100
AcDbEntity
8
0
100
AcDbLine
10
-57.189850897805847
20
-89.960358771142396
30
0
11
-62.690290350930873
21
-89.960358771142396
31
0
0
LINE
5
511
100
AcDbEntity
8
0
100
AcDbLine
10
-62.690290350930873
20
-89.960358771142396
30
0
11
-62.690290350930802
21
-78.060309943017415
31
0
0
LINE
5
512
100
AcDbEntity
8
0
100
AcDbLine
10
-62.690290350930802
20
-78.060309943017415
30
0
11
-57.189850897805812
21
-78.060309943017415
31
0
0
LINE
5
513
100
AcDbEntity
8
0
100
AcDbLine
10
-57.189850897805812
20
-78.060309943017415
30
0
11
-57.189850897805776
21
-73.810398613834479
31
0
0
LINE
5
514
100
AcDbEntity
8
0
100
AcDbLine
10
-51.689851501799531
20
-73.810398613834479
30
0
11
-57.189850897805776
21
-73.810398613834479
31
0
0
LINE
5
515
100
AcDbEntity
8
0
100
AcDbLine
10
-51.689851501799531
20
-74.910396070702973
30
0
11
-51.689851501799531
21
-73.810398613834479
31
0
0
LINE
5
516
100
AcDbEntity
8
0
100
AcDbLine
10
-48.4898530276784
20
-74.910387996260454
30
0
11
-51.689851501799531
21
-74.910396070702973
31
0
0
LINE
5
517
100
AcDbEntity
8
0
100
AcDbLine
10
-48.4898530276784
20
-73.81039053939196
30
0
11
-48.4898530276784
21
-74.910387996260454
31
0
0
LINE
5
518
100
AcDbEntity
8
0
100
AcDbLine
10
-42.490077935871362
20
-73.81039053939196
30
0
11
-48.4898530276784
21
-73.81039053939196
31
0
0
LINE
5
519
100
AcDbEntity
8
0
100
AcDbLine
10
-42.490077935871362
20
-70.410388123417022
30
0
11
-42.490077935871362
21
-73.81039053939196
31
0
0
LINE
5
520
100
AcDbEntity
8
0
100
AcDbLine
10
-48.4898530276784
20
-70.410388123417022
30
0
11
-42.490077935871362
21
-70.410388123417022
31
0
0
LINE
5
521
100
AcDbEntity
8
0
100
AcDbLine
10
-48.489853027678471
20
-69.310386629327269
30
0
11
-48.4898530276784
21
-70.410388123417022
31
0
0
LINE
5
522
100
AcDbEntity
8
0
100
AcDbLine
10
-51.68985553902079
20
-69.310386629327269
30
0
11
-48.489853027678471
21
-69.310386629327269
31
0
0
LINE
5
523
100
AcDbEntity
8
0
100
AcDbLine
10
-51.689851501799531
20
-70.410388123417022
30
0
11
-51.68985553902079
21
-69.310386629327269
31
0
0
LINE
5
524
100
AcDbEntity
8
0
100
AcDbLine
10
-57.189850897805776
20
-70.410388123416951
30
0
11
-51.689851501799531
21
-70.410388123417022
31
0
0
LINE
5
525
100
AcDbEntity
8
0
100
AcDbLine
10
-57.189850897805776
20
-70.410388123416951
30
0
11
-57.189850897805776
21
-61.260301804996558
31
0
0
LINE
5
526
100
AcDbEntity
8
0
100
AcDbLine
10
-57.189850897805776
20
-61.260301804996558
30
0
11
-4.6902130397328889
21
-61.260301804996601
31
0
0
SPLINE
5
527
100
AcDbEntity
8
0
100
AcDbSpline
70
1064
71
3
72
8
73
4
74
0
42
0.000000001
43
0.0000000001
44
0.0000000001
40
0
40
0
40
0
40
0
40
1
40
1
40
1
40
1
10
-4.6902130397328889
20
-61.260301804996558
30
0
10
-1.9202139568496435
20
-61.26030180499653
30
0
10
0.3099985488087853
20
-63.489994518416125
30
0
10
0.3099985488087853
20
-66.25999662921528
30
0
0
LINE
5
528
100
AcDbEntity
8
0
100
AcDbLine
10
0.30999854880878497
20
-66.259996629215266
30
0
11
0.3099985488087853
21
-101.76015532062158
31
0
0
SPLINE
5
529
100
AcDbEntity
8
0
100
AcDbSpline
70
1064
71
3
72
8
73
4
74
0
42
0.000000001
43
0.0000000001
44
0.0000000001
40
0
40
0
40
0
40
0
40
1
40
1
40
1
40
1
10
0.30999854880874977
20
-101.76015532062158
30
0
10
0.30999854880874977
20
-104.53015743142073
30
0
10
-1.920213956849679
20
-106.76036690916325
30
0
10
-4.6902130397329245
20
-106.76036690916325
30
0
0
LINE
5
530
100
AcDbEntity
8
0
100
AcDbLine
10
-4.6902130397329254
20
-106.76036690916325
30
0
11
-57.189850897805869
21
-106.76036690916325
31
0
0
LINE
5
531
100
AcDbEntity
8
0
100
AcDbLine
10
-57.189850897805869
20
-106.76036690916325
30
0
11
-57.189850897805847
21
-97.610294409020838
31
0
0
LINE
5
532
100
AcDbEntity
8
0
100
AcDbLine
10
-51.689851501799566
20
-97.610294409020838
30
0
11
-57.189850897805847
21
-97.610294409020838
31
0
0
LINE
5
533
100
AcDbEntity
8
0
100
AcDbLine
10
-51.689851501799566
20
-98.710291865889332
30
0
11
-51.689851501799566
21
-97.610294409020838
31
0
0
LINE
5
534
100
AcDbEntity
8
0
100
AcDbLine
10
-48.489853027678471
20
-98.71028379144677
30
0
11
-51.689851501799566
21
-98.710291865889332
31
0
0
LINE
5
535
100
AcDbEntity
8
0
100
AcDbLine
10
-48.489853027678471
20
-97.610286334578277
30
0
11
-48.489853027678471
21
-98.71028379144677
31
0
0
LINE
5
536
100
AcDbEntity
8
0
100
AcDbLine
10
-42.490077935871398
20
-97.610286334578248
30
0
11
-48.489853027678471
21
-97.610286334578277
31
0
0
LINE
5
537
100
AcDbEntity
8
0
100
AcDbLine
10
-42.490077935871398
20
-94.210283918603309
30
0
11
-42.490077935871398
21
-97.610286334578248
31
0
0
LINE
5
538
100
AcDbEntity
8
0
100
AcDbLine
10
-48.489853027678471
20
-94.21028391860338
30
0
11
-42.490077935871398
21
-94.210283918603309
31
0
0
LINE
5
539
100
AcDbEntity
8
0
100
AcDbLine
10
-48.489853027678507
20
-93.110278387292325
30
0
11
-48.489853027678471
21
-94.21028391860338
31
0
0
LINE
5
540
100
AcDbEntity
8
0
100
AcDbLine
10
-51.689855539020826
20
-93.110278387292297
30
0
11
-48.489853027678507
21
-93.110278387292325
31
0
0
LINE
5
541
100
AcDbEntity
8
0
100
AcDbLine
10
-51.689851501799566
20
-94.210283918603338
30
0
11
-51.689855539020826
21
-93.110278387292297
31
0
0
LINE
5
542
100
AcDbEntity
8
0
100
AcDbLine
10
-57.189850897805847
20
-94.210283918603338
30
0
11
-51.689851501799566
21
-94.210283918603338
31
0
0
LWPOLYLINE
5
543
100
AcDbEntity
8
0
100
AcDbPolyline
90
8
70
1
43
0.0
10
-39.401664022201963
20
-46.019638607313013
10
-39.601663886785317
20
-46.019638607313041
42
-0.41421356237308465
10
-41.101663929493597
20
-44.519638564604719
10
-41.101663929493597
20
-42.819638789604738
42
-0.4142135623730881
10
-39.601663886785303
20
-41.319638746896402
10
-39.401664022201942
20
-41.319638746896402
42
-0.41421356237309165
10
-37.901663979493634
20
-42.819638789604738
10
-37.901663979493669
20
-44.519638564604719
42
-0.41421356237309509
0
LWPOLYLINE
5
544
100
AcDbEntity
8
0
100
AcDbPolyline
90
8
70
1
43
0.0
10
-39.401664022201963
20
-15.219630357313019
10
-39.601663886785317
20
-15.219630357313054
42
-0.4142135623730881
10
-41.101663929493611
20
-13.719630314604725
10
-41.101663929493611
20
-12.019630539604709
42
-0.41421356237309509
10
-39.601663886785317
20
-10.519630496896344
10
-39.401664022201963
20
-10.519630496896344
42
-0.41421356237309509
10
-37.901663979493634
20
-12.019630539604673
10
-37.901663979493669
20
-13.719630314604689
42
-0.41421356237310197
0
LWPOLYLINE
5
545
100
AcDbEntity
8
0
100
AcDbPolyline
90
8
70
1
43
0.0
10
-8.4016664909519356
20
-15.219638294813063
10
-8.6016663555352757
20
-15.219638294813027
42
-0.4142135623730881
10
-10.101666398243569
20
-13.719638252104698
10
-10.101666398243569
20
-12.019638477104682
42
-0.4142135623730881
10
-8.6016663555352402
20
-10.519638434396388
10
-8.4016664909519001
20
-10.519638434396388
42
-0.4142135623730881
10
-6.9016664482436063
20
-12.019638477104717
10
-6.9016664482435708
20
-13.719638252104733
42
-0.4142135623730881
0
LWPOLYLINE
5
546
100
AcDbEntity
8
0
100
AcDbPolyline
90
8
70
1
43
0.0
10
-8.4016664909519712
20
-46.019638607313013
10
-8.6016663555353112
20
-46.019638607313041
42
-0.41421356237310197
10
-10.101666398243676
20
-44.519638564604719
10
-10.101666398243676
20
-42.819638789604738
42
-0.41421356237309509
10
-8.6016663555353468
20
-41.319638746896402
10
-8.4016664909520067
20
-41.319638746896402
42
-0.41421356237310197
10
-6.9016664482436418
20
-42.819638789604738
10
-6.9016664482436774
20
-44.519638564604719
42
-0.41421356237309509
0
CIRCLE
5
547
100
AcDbEntity
8
0
100
AcDbCircle
10
-24.001664791993615
20
-28.269634419813041
30
0
40
11.199999824999995
0
CIRCLE
5
548
100
AcDbEntity
8
0
100
AcDbCircle
10
-24.001664791993615
20
-11.019637169813006
30
0
40
3.0000000854166586
0
LINE
5
549
100
AcDbEntity
8
0
100
AcDbLine
10
-58.40143909407697
20
-22.319495738823445
30
0
11
-58.40143909407697
21
-18.069570591362503
31
0
0
LINE
5
550
100
AcDbEntity
8
0
100
AcDbLine
10
-63.90187854720196
20
-22.319495738823445
30
0
11
-58.40143909407697
21
-22.319495738823445
31
0
0
LINE
5
551
100
AcDbEntity
8
0
100
AcDbLine
10
-63.90187854720196
20
-34.219544566948429
30
0
11
-63.90187854720196
21
-22.319495738823445
31
0
0
LINE
5
552
100
AcDbEntity
8
0
100
AcDbLine
10
-58.40143909407697
20
-34.219544566948429
30
0
11
-63.90187854720196
21
-34.219544566948429
31
0
0
LINE
5
553
100
AcDbEntity
8
0
100
AcDbLine
10
-58.40143909407697
20
-38.469455896131365
30
0
11
-58.40143909407697
21
-34.219544566948429
31
0
0
LINE
5
554
100
AcDbEntity
8
0
100
AcDbLine
10
-52.901439698070689
20
-38.469455896131365
30
0
11
-58.40143909407697
21
-38.469455896131365
31
0
0
LINE
5
555
100
AcDbEntity
8
0
100
AcDbLine
10
-52.901439698070689
20
-37.369458439262871
30
0
11
-52.901439698070689
21
-38.469455896131365
31
0
0
LINE
5
556
100
AcDbEntity
8
0
100
AcDbLine
10
-49.701441223949594
20
-37.369466513705433
30
0
11
-52.901439698070689
21
-37.369458439262871
31
0
0
LINE
5
557
100
AcDbEntity
8
0
100
AcDbLine
10
-49.701441223949594
20
-38.469463970573926
30
0
11
-49.701441223949594
21
-37.369466513705433
31
0
0
LINE
5
558
100
AcDbEntity
8
0
100
AcDbLine
10
-43.701666132142556
20
-38.469463970573926
30
0
11
-49.701441223949594
21
-38.469463970573926
31
0
0
LINE
5
559
100
AcDbEntity
8
0
100
AcDbLine
10
-43.70166613214252
20
-41.869466386548865
30
0
11
-43.701666132142556
21
-38.469463970573926
31
0
0
LINE
5
560
100
AcDbEntity
8
0
100
AcDbLine
10
-49.701441223949594
20
-41.869466386548865
30
0
11
-43.70166613214252
21
-41.869466386548865
31
0
0
LINE
5
561
100
AcDbEntity
8
0
100
AcDbLine
10
-49.701441223949629
20
-42.969467880638618
30
0
11
-49.701441223949594
21
-41.869466386548865
31
0
0
LINE
5
562
100
AcDbEntity
8
0
100
AcDbLine
10
-52.901443735291949
20
-42.969467880638618
30
0
11
-49.701441223949629
21
-42.969467880638618
31
0
0
LINE
5
563
100
AcDbEntity
8
0
100
AcDbLine
10
-52.901439698070689
20
-41.869466386548865
30
0
11
-52.901443735291949
21
-42.969467880638618
31
0
0
LINE
5
564
100
AcDbEntity
8
0
100
AcDbLine
10
-58.40143909407697
20
-41.869466386548865
30
0
11
-52.901439698070689
21
-41.869466386548865
31
0
0
LINE
5
565
100
AcDbEntity
8
0
100
AcDbLine
10
-58.40143909407697
20
-51.019552704969286
30
0
11
-58.40143909407697
21
-41.869466386548865
31
0
0
LINE
5
566
100
AcDbEntity
8
0
100
AcDbLine
10
-5.9018012360040473
20
-51.019552704969286
30
0
11
-58.40143909407697
21
-51.019552704969286
31
0
0
SPLINE
5
567
100
AcDbEntity
8
0
100
AcDbSpline
70
1064
71
3
72
8
73
4
74
0
42
0.000000001
43
0.0000000001
44
0.0000000001
40
-1
40
-1
40
-1
40
-1
40
0
40
0
40
0
40
0
10
-0.90158964746239079
20
-46.019857880750536
30
0
10
-0.90158964746239079
20
-48.78985999154969
30
0
10
-3.1318021531208906
20
-51.019552704969286
30
0
10
-5.901801236004065
20
-51.019552704969286
30
0
0
LINE
5
568
100
AcDbEntity
8
0
100
AcDbLine
10
-0.90158964746239079
20
-10.519699189344269
30
0
11
-0.90158964746239079
21
-46.019857880750536
31
0
0
SPLINE
5
569
100
AcDbEntity
8
0
100
AcDbSpline
70
1064
71
3
72
8
73
4
74
0
42
0.000000001
43
0.0000000001
44
0.0000000001
40
-1
40
-1
40
-1
40
-1
40
0
40
0
40
0
40
0
10
-5.9018012360040295
20
-5.519487600802595
30
0
10
-3.131802153120784
20
-5.519487600802595
30
0
10
-0.90158964746235526
20
-7.7496970785451147
30
0
10
-0.90158964746235526
20
-10.519699189344269
30
0
0
LINE
5
570
100
AcDbEntity
8
0
100
AcDbLine
10
-58.40143909407697
20
-5.5194876008026128
30
0
11
-5.9018012360040295
21
-5.519487600802595
31
0
0
LINE
5
571
100
AcDbEntity
8
0
100
AcDbLine
10
-58.40143909407697
20
-14.669560100945045
30
0
11
-58.40143909407697
21
-5.5194876008026128
31
0
0
LINE
5
572
100
AcDbEntity
8
0
100
AcDbLine
10
-52.901439698070689
20
-14.669560100945045
30
0
11
-58.40143909407697
21
-14.669560100945045
31
0
0
LINE
5
573
100
AcDbEntity
8
0
100
AcDbLine
10
-52.901439698070689
20
-13.569562644076552
30
0
11
-52.901439698070689
21
-14.669560100945045
31
0
0
LINE
5
574
100
AcDbEntity
8
0
100
AcDbLine
10
-49.701441223949594
20
-13.569570718519071
30
0
11
-52.901439698070689
21
-13.569562644076552
31
0
0
LINE
5
575
100
AcDbEntity
8
0
100
AcDbLine
10
-49.701441223949594
20
-14.669568175387564
30
0
11
-49.701441223949594
21
-13.569570718519071
31
0
0
LINE
5
576
100
AcDbEntity
8
0
100
AcDbLine
10
-43.701666132142556
20
-14.669568175387564
30
0
11
-49.701441223949594
21
-14.669568175387564
31
0
0
LINE
5
577
100
AcDbEntity
8
0
100
AcDbLine
10
-43.701666132142535
20
-18.069570591362503
30
0
11
-43.701666132142556
21
-14.669568175387564
31
0
0
LINE
5
578
100
AcDbEntity
8
0
100
AcDbLine
10
-49.701441223949594
20
-18.069570591362503
30
0
11
-43.701666132142535
21
-18.069570591362503
31
0
0
LINE
5
579
100
AcDbEntity
8
0
100
AcDbLine
10
-49.701441223949629
20
-19.169576122673515
30
0
11
-49.701441223949594
21
-18.069570591362503
31
0
0
LINE
5
580
100
AcDbEntity
8
0
100
AcDbLine
10
-52.901443735291949
20
-19.169576122673586
30
0
11
-49.701441223949629
21
-19.169576122673515
31
0
0
LINE
5
581
100
AcDbEntity
8
0
100
AcDbLine
10
-52.901439698070689
20
-18.069570591362503
30
0
11
-52.901443735291949
21
-19.169576122673586
31
0
0
LINE
5
582
100
AcDbEntity
8
0
100
AcDbLine
10
-58.40143909407697
20
-18.069570591362503
30
0
11
-52.901439698070689
21
-18.069570591362503
31
0
0
CIRCLE
5
583
100
AcDbEntity
8
0
100
AcDbCircle
10
-9.8752951942161182
20
31.604814899579363
30
0
40
1.7000012079874693
0
ELLIPSE
5
584
100
AcDbEntity
8
0
100
AcDbEllipse
10
-49.354233958533257
20
20.557137484473813
30
0
11
-1.0606594910422305
21
-1.0606594910422305
31
0.0
40
0.86666664491202328
41
1.9233353529741692
42
3.7728439577039903
0
ELLIPSE
5
585
100
AcDbEntity
8
0
100
AcDbEllipse
10
-49.527064535269915
20
20.583576473374308
30
0
11
-1.0606594910422305
21
-1.0606594910422305
31
0.0
40
0.86666664491202328
41
3.6442626367095432
42
6.1168240214567922
0
LINE
5
586
100
AcDbEntity
8
0
100
AcDbLine
10
-50.725301626924505
20
13.8488740812911
30
0
11
-50.725301626924519
21
19.689781837166951
31
0
0
ELLIPSE
5
587
100
AcDbEntity
8
0
100
AcDbEllipse
10
-49.496371029274101
20
13.352396302184886
30
0
11
-1.0606594910422305
21
-1.0606594910422305
31
0.0
40
0.86666664491202328
41
5.0649280065639397
42
6.9144366112949465
0
ELLIPSE
5
588
100
AcDbEntity
8
0
100
AcDbEllipse
10
-49.323540452537443
20
13.325957313284391
30
0
11
-1.0606594910422305
21
-1.0606594910422305
31
0.0
40
0.86666664491202328
41
0.50266998312090061
42
2.9752313678670035
0
LINE
5
589
100
AcDbEntity
8
0
100
AcDbLine
10
-48.12530336088281
20
20.060659705367616
30
0
11
-48.125303360882839
21
14.219751949491744
31
0
0
CIRCLE
5
590
100
AcDbEntity
8
0
100
AcDbCircle
10
-9.8752951942161182
20
11.604814899579345
30
0
40
1.6000001072916348
0
ELLIPSE
5
591
100
AcDbEntity
8
0
100
AcDbEllipse
10
-39.954233708533231
20
20.55715335947383
30
0
11
-1.0606594910422305
21
-1.0606594910422305
31
0.0
40
0.86666664491202328
41
1.9233353529740553
42
3.7728439577039934
0
ELLIPSE
5
592
100
AcDbEntity
8
0
100
AcDbEllipse
10
-40.127064285269888
20
20.583592348374324
30
0
11
-1.0606594910422305
21
-1.0606594910422305
31
0.0
40
0.86666664491202328
41
3.6442626367095512
42
6.1168240214567975
0
LINE
5
593
100
AcDbEntity
8
0
100
AcDbLine
10
-41.325301376924479
20
13.848889956291401
30
0
11
-41.325301376924486
21
19.689797712166968
31
0
0
ELLIPSE
5
594
100
AcDbEntity
8
0
100
AcDbEllipse
10
-40.096370779274217
20
13.352412177184902
30
0
11
-1.0606594910422305
21
-1.0606594910422305
31
0.0
40
0.86666664491202328
41
5.0649280065637257
42
6.9144366112951534
0
ELLIPSE
5
595
100
AcDbEntity
8
0
100
AcDbEllipse
10
-39.923540202537488
20
13.325973188284408
30
0
11
-1.0606594910422305
21
-1.0606594910422305
31
0.0
40
0.86666664491202328
41
0.5026699831210546
42
2.9752313678670008
0
LINE
5
596
100
AcDbEntity
8
0
100
AcDbLine
10
-38.725303110882855
20
20.060675580367487
30
0
11
-38.725303110882884
21
14.219767824491761
31
0
0
LWPOLYLINE
5
597
100
AcDbEntity
8
0
100
AcDbPolyline
90
4
70
1
43
0.0
10
-12.52529994838282
20
26.954791343329312
10
-12.52529994838282
20
20.454791378745973
10
-6.5252997775495025
20
20.454791378745973
10
-6.5252997775495025
20
26.95479134332933
0
SPLINE
5
598
100
AcDbEntity
8
0
100
AcDbSpline
70
1064
71
3
72
8
73
4
74
0
42
0.000000001
43
0.0000000001
44
0.0000000001
40
0
40
0
40
0
40
0
40
1
40
1
40
1
40
1
10
-54.825426617657754
20
7.640893767621364
30
0
10
-54.825426617657754
20
6.5405248863957866
30
0
10
-53.928347976402037
20
5.6547908369165967
30
0
10
-52.813889192934468
20
5.6547908369165967
30
0
0
LINE
5
599
100
AcDbEntity
8
0
100
AcDbLine
10
-54.825426617657754
20
25.516821374839811
30
0
11
-54.825426617657754
21
7.640893767621364
31
0
0
SPLINE
5
600
100
AcDbEntity
8
0
100
AcDbSpline
70
1064
71
3
72
8
73
4
74
0
42
0.000000001
43
0.0000000001
44
0.0000000001
40
0
40
0
40
0
40
0
40
1
40
1
40
1
40
1
10
-52.813889192934468
20
27.502908156659469
30
0
10
-53.928347976402037
20
27.502908156659469
30
0
10
-54.825426617657754
20
26.617190256065388
30
0
10
-54.825426617657754
20
25.516821374839811
30
0
0
LINE
5
601
100
AcDbEntity
8
0
100
AcDbLine
10
-19.118788281476125
20
27.502908156659434
30
0
11
-52.813889192934468
21
27.502908156659469
31
0
0
SPLINE
5
602
100
AcDbEntity
8
0
100
AcDbSpline
70
1064
71
3
72
8
73
4
74
0
42
0.000000001
43
0.0000000001
44
0.0000000001
40
0
40
0
40
0
40
0
40
1
40
1
40
1
40
1
10
-17.106726017987324
20
29.489027236249274
30
0
10
-17.106726017987324
20
28.388658355023662
30
0
10
-18.004333535229744
20
27.502908156659434
30
0
10
-19.118788281476125
20
27.502908156659434
30
0
0
LINE
5
603
100
AcDbEntity
8
0
100
AcDbLine
10
-17.106726017987324
20
34.454777104006439
30
0
11
-17.106726017987324
21
29.489027236249274
31
0
0
LINE
5
604
100
AcDbEntity
8
0
100
AcDbLine
10
-3.0254311317161431
20
34.454777104006439
30
0
11
-17.106726017987324
21
34.454777104006439
31
0
0
LINE
5
605
100
AcDbEntity
8
0
100
AcDbLine
10
-3.0254311317161431
20
7.6408776187362193
30
0
11
-3.0254311317161431
21
34.454777104006439
31
0
0
SPLINE
5
606
100
AcDbEntity
8
0
100
AcDbSpline
70
1064
71
3
72
8
73
4
74
0
42
0.000000001
43
0.0000000001
44
0.0000000001
40
0
40
0
40
0
40
0
40
1
40
1
40
1
40
1
10
-5.0369705750501303
20
5.6547746880314875
30
0
10
-3.9225138101931201
20
5.6547746880314875
30
0
10
-3.0254311317161431
20
6.5405087375106419
30
0
10
-3.0254311317161431
20
7.6408776187362193
30
0
0
LINE
5
607
100
AcDbEntity
8
0
100
AcDbLine
10
-52.813889192934475
20
5.6547908369165967
30
0
11
-5.0369705750501303
21
5.6547746880314875
31
0
0
CIRCLE
5
608
100
AcDbEntity
8
0
100
AcDbCircle
10
-4.8610032995793873
20
100.68091021900401
30
0
40
1.6000000014583193
0
CIRCLE
5
609
100
AcDbEntity
8
0
100
AcDbCircle
10
-27.011000758766937
20
57.785173498795629
30
0
40
1.6000000014583193
0
CIRCLE
5
610
100
AcDbEntity
8
0
100
AcDbCircle
10
-36.160999966246052
20
69.380910906503942
30
0
40
1.6000000014583193
0
LWPOLYLINE
5
611
100
AcDbEntity
8
0
100
AcDbPolyline
90
4
70
1
43
0.0
10
-20.760994737933611
20
55.035178998795672
10
-14.460994637933613
20
55.035178998795672
10
-14.460994637933577
20
61.035179169628989
10
-20.760994737933576
20
61.035179169628989
0
CIRCLE
5
612
100
AcDbEntity
8
0
100
AcDbCircle
10
-36.160999966246024
20
100.68091021900393
30
0
40
1.6000000014583193
0
CIRCLE
5
613
100
AcDbEntity
8
0
100
AcDbCircle
10
-20.510995237933525
20
85.030909477962311
30
0
40
11.499999489583352
0
CIRCLE
5
614
100
AcDbEntity
8
0
100
AcDbCircle
10
-4.8610032995794228
20
69.380910906503942
30
0
40
1.6000000014583193
0
LINE
5
615
100
AcDbEntity
8
0
100
AcDbLine
10
-49.260967338194021
20
58.835186564794967
30
0
11
-49.260967338194028
21
64.535196213639395
31
0
0
LINE
5
616
100
AcDbEntity
8
0
100
AcDbLine
10
-49.260967338194028
20
64.535196213639395
30
0
11
-54.761406791319054
21
64.535196213639438
31
0
0
LINE
5
617
100
AcDbEntity
8
0
100
AcDbLine
10
-54.761406791319054
20
64.535196213639438
30
0
11
-54.761406791319018
21
79.035086350358185
31
0
0
LINE
5
618
100
AcDbEntity
8
0
100
AcDbLine
10
-54.761406791319018
20
79.035086350358185
30
0
11
-49.260967338194007
21
79.035086350358114
31
0
0
LINE
5
619
100
AcDbEntity
8
0
100
AcDbLine
10
-49.260967338194007
20
79.035086350358114
30
0
11
-49.26096733819405
21
83.535164693863948
31
0
0
LINE
5
620
100
AcDbEntity
8
0
100
AcDbLine
10
-43.76096347734395
20
83.53516469386399
30
0
11
-49.26096733819405
21
83.535164693863948
31
0
0
LINE
5
621
100
AcDbEntity
8
0
100
AcDbLine
10
-43.760963477344021
20
82.435167236995497
30
0
11
-43.76096347734395
21
83.53516469386399
31
0
0
LINE
5
622
100
AcDbEntity
8
0
100
AcDbLine
10
-40.56096500322289
20
82.435175311438016
30
0
11
-43.760963477344021
21
82.435167236995497
31
0
0
LINE
5
623
100
AcDbEntity
8
0
100
AcDbLine
10
-40.56096500322289
20
83.535172768306509
30
0
11
-40.56096500322289
21
82.435175311438016
31
0
0
LINE
5
624
100
AcDbEntity
8
0
100
AcDbLine
10
-35.160995838692472
20
83.535172768306509
30
0
11
-40.56096500322289
21
83.535172768306509
31
0
0
LINE
5
625
100
AcDbEntity
8
0
100
AcDbLine
10
-35.160995838692472
20
86.935175184281448
30
0
11
-35.160995838692472
21
83.535172768306509
31
0
0
LINE
5
626
100
AcDbEntity
8
0
100
AcDbLine
10
-40.56096500322289
20
86.935175184281448
30
0
11
-35.160995838692472
21
86.935175184281448
31
0
0
LINE
5
627
100
AcDbEntity
8
0
100
AcDbLine
10
-40.56096500322289
20
88.035176678371201
30
0
11
-40.56096500322289
21
86.935175184281448
31
0
0
LINE
5
628
100
AcDbEntity
8
0
100
AcDbLine
10
-43.760967514565209
20
88.035176678371201
30
0
11
-40.56096500322289
21
88.035176678371201
31
0
0
LINE
5
629
100
AcDbEntity
8
0
100
AcDbLine
10
-43.76096347734395
20
86.935175184281448
30
0
11
-43.760967514565209
21
88.035176678371201
31
0
0
LINE
5
630
100
AcDbEntity
8
0
100
AcDbLine
10
-49.260962873350266
20
86.935175184281448
30
0
11
-43.76096347734395
21
86.935175184281448
31
0
0
LINE
5
631
100
AcDbEntity
8
0
100
AcDbLine
10
-49.260962873350266
20
86.935175184281448
30
0
11
-49.26096733819405
21
94.035204351660227
31
0
0
LINE
5
632
100
AcDbEntity
8
0
100
AcDbLine
10
-49.26096733819405
20
94.035204351660227
30
0
11
-54.760890026996165
21
94.035204351660227
31
0
0
LINE
5
633
100
AcDbEntity
8
0
100
AcDbLine
10
-54.760890026996165
20
94.035204351660227
30
0
11
-54.76089002699608
21
101.53500497014986
31
0
0
SPLINE
5
634
100
AcDbEntity
8
0
100
AcDbSpline
70
1064
71
3
72
8
73
4
74
0
42
0.000000001
43
0.0000000001
44
0.0000000001
40
0
40
0
40
0
40
0
40
1
40
1
40
1
40
1
10
-54.760890026996059
20
101.53500497014981
30
0
10
-54.760890026996059
20
104.02800525498058
30
0
10
-52.753906587868507
20
106.03498869410821
30
0
10
-50.260906303037736
20
106.03498869410821
30
0
0
LINE
5
635
100
AcDbEntity
8
0
100
AcDbLine
10
-50.260906303037736
20
106.03498869410821
30
0
11
-6.2610080282981073
21
106.03498869410821
31
0
0
SPLINE
5
636
100
AcDbEntity
8
0
100
AcDbSpline
70
1064
71
3
72
8
73
4
74
0
42
0.000000001
43
0.0000000001
44
0.0000000001
40
0
40
0
40
0
40
0
40
1
40
1
40
1
40
1
10
-6.2610080282981428
20
106.03498869410821
30
0
10
-3.7680077434674608
20
106.03498869410821
30
0
10
-1.7610243043398377
20
104.02800525498058
30
0
10
-1.7610243043398377
20
101.53500497014981
30
0
0
LINE
5
637
100
AcDbEntity
8
0
100
AcDbLine
10
-1.7610243043398377
20
101.53500497014981
30
0
11
-1.7610243043398377
21
100.03535490504568
31
0
0
LINE
5
638
100
AcDbEntity
8
0
100
AcDbLine
10
-1.7610243043398377
20
100.03535490504568
30
0
11
-1.2607964397564864
21
47.034972418066516
31
0
0
LINE
5
639
100
AcDbEntity
8
0
100
AcDbLine
10
-1.2607964397564864
20
47.034972418066516
30
0
11
-24.761170788714804
21
47.034972418066502
31
0
0
LINE
5
640
100
AcDbEntity
8
0
100
AcDbLine
10
-24.761170788714804
20
47.034972418066502
30
0
11
-25.761109753558564
21
47.535200282649811
31
0
0
LINE
5
641
100
AcDbEntity
8
0
100
AcDbLine
10
-25.761109753558564
20
47.535200282649811
30
0
11
-27.260759818662805
21
49.035367112076912
31
0
0
LINE
5
642
100
AcDbEntity
8
0
100
AcDbLine
10
-27.260759818662805
20
49.035367112076912
30
0
11
-49.260967338193957
21
49.035367112076912
31
0
0
LINE
5
643
100
AcDbEntity
8
0
100
AcDbLine
10
-49.260967338193957
20
49.035367112076912
30
0
11
-49.260967338194007
21
55.43517607437748
31
0
0
LINE
5
644
100
AcDbEntity
8
0
100
AcDbLine
10
-43.760963477343957
20
55.435176074377551
30
0
11
-49.260967338194007
21
55.43517607437748
31
0
0
LINE
5
645
100
AcDbEntity
8
0
100
AcDbLine
10
-43.760963477344028
20
54.335178617508987
30
0
11
-43.760963477343957
21
55.435176074377551
31
0
0
LINE
5
646
100
AcDbEntity
8
0
100
AcDbLine
10
-40.560965003222897
20
54.335186691951577
30
0
11
-43.760963477344028
21
54.335178617508987
31
0
0
LINE
5
647
100
AcDbEntity
8
0
100
AcDbLine
10
-40.560965003222897
20
55.435184148820071
30
0
11
-40.560965003222897
21
54.335186691951577
31
0
0
LINE
5
648
100
AcDbEntity
8
0
100
AcDbLine
10
-35.160995838692479
20
55.435184148820071
30
0
11
-40.560965003222897
21
55.435184148820071
31
0
0
LINE
5
649
100
AcDbEntity
8
0
100
AcDbLine
10
-35.160995838692479
20
58.835186564795009
30
0
11
-35.160995838692479
21
55.435184148820071
31
0
0
LINE
5
650
100
AcDbEntity
8
0
100
AcDbLine
10
-40.560965003222897
20
58.835186564795009
30
0
11
-35.160995838692479
21
58.835186564795009
31
0
0
LINE
5
651
100
AcDbEntity
8
0
100
AcDbLine
10
-40.56096500322289
20
59.935192096106022
30
0
11
-40.560965003222897
21
58.835186564795009
31
0
0
LINE
5
652
100
AcDbEntity
8
0
100
AcDbLine
10
-43.760967514565209
20
59.935192096106022
30
0
11
-40.56096500322289
21
59.935192096106022
31
0
0
LINE
5
653
100
AcDbEntity
8
0
100
AcDbLine
10
-43.760963477343957
20
58.835186564795009
30
0
11
-43.760967514565209
21
59.935192096106022
31
0
0
LINE
5
654
100
AcDbEntity
8
0
100
AcDbLine
10
-49.260967338194021
20
58.835186564794967
30
0
11
-43.760963477343957
21
58.835186564795009
31
0
0
CIRCLE
5
655
100
AcDbEntity
8
0
100
AcDbCircle
10
39.910091115886885
20
-73.842923709612776
30
0
40
7.5000000812500289
0
CIRCLE
5
656
100
AcDbEntity
8
0
100
AcDbCircle
10
47.910096282553596
20
25.157105832053936
30
0
40
3.9999999375000073
0
LWPOLYLINE
5
657
100
AcDbEntity
8
0
100
AcDbPolyline
90
4
70
1
43
0.0
10
43.610098532553593
20
-44.342913917946106
10
43.610098532553593
20
-50.342913030446098
10
28.410098770053551
20
-50.342913030446098
10
28.410098770053551
20
-44.342913917946106
0
LWPOLYLINE
5
658
100
AcDbEntity
8
0
100
AcDbPolyline
90
4
70
1
43
0.0
10
53.910116032553574
20
3.1570836862205809
10
47.410096488803575
20
3.1570836862205809
10
47.410096488803589
20
9.1570761841372672
10
53.910116032553574
20
9.1570761841372317
0
CIRCLE
5
659
100
AcDbEntity
8
0
100
AcDbCircle
10
37.910092470053591
20
22.657073790387248
30
0
40
1.6000000014583193
0
CIRCLE
5
660
100
AcDbEntity
8
0
100
AcDbCircle
10
36.910097115886948
20
58.657073227887238
30
0
40
6.0000036104166554
0
CIRCLE
5
661
100
AcDbEntity
8
0
100
AcDbCircle
10
22.410094365886941
20
43.957098394553938
30
0
40
2.9999998208333167
0
LWPOLYLINE
5
662
100
AcDbEntity
8
0
100
AcDbPolyline
90
4
70
1
43
0.0
10
43.960102595053598
20
83.657072440387253
10
43.960102595053598
20
77.657073327887247
10
28.760099657553617
20
77.657073327887232
10
28.760099657553617
20
83.657072440387253
0
CIRCLE
5
663
100
AcDbEntity
8
0
100
AcDbCircle
10
47.410094636720217
20
-93.342895292946068
30
0
40
1.6000000014583549
0
CIRCLE
5
664
100
AcDbEntity
8
0
100
AcDbCircle
10
43.410094699220224
20
6.1570803320539369
30
0
40
1.6000000014583193
0
LWPOLYLINE
5
665
100
AcDbEntity
8
0
100
AcDbPolyline
90
4
70
1
43
0.0
10
25.410096303386904
20
11.657074623720565
10
25.410096303386904
20
5.1570778341372225
10
19.410103805470218
20
5.1570778341372581
10
19.410103805470253
20
11.6570746237206
0
CIRCLE
5
666
100
AcDbEntity
8
0
100
AcDbCircle
10
25.310102324220232
20
-93.342895292946068
30
0
40
1.6000000014583549
0
CIRCLE
5
667
100
AcDbEntity
8
0
100
AcDbCircle
10
21.410091074220237
20
-21.342922876279413
30
0
40
1.6000000014583193
0
CIRCLE
5
668
100
AcDbEntity
8
0
100
AcDbCircle
10
22.410094365886923
20
-0.84292154294610455
30
0
40
1.6000000014583193
0
CIRCLE
5
669
100
AcDbEntity
8
0
100
AcDbCircle
10
19.910094074220233
20
-47.342910563779469
30
0
40
1.6000000014583193
0
CIRCLE
5
670
100
AcDbEntity
8
0
100
AcDbCircle
10
37.91009247005357
20
-34.842930272112781
30
0
40
1.6000000014583193
0
LWPOLYLINE
5
671
100
AcDbEntity
8
0
100
AcDbPolyline
90
4
70
1
43
0.0
10
43.610098532553593
20
-18.342918292946049
10
43.610098532553593
20
-24.34291740544607
10
28.410098770053569
20
-24.34291740544607
10
28.410098770053569
20
-18.342918292946084
0
CIRCLE
5
672
100
AcDbEntity
8
0
100
AcDbCircle
10
47.91009628255356
20
-37.842924272112825
30
0
40
3.9999999375000073
0
LWPOLYLINE
5
673
100
AcDbEntity
8
0
100
AcDbPolyline
90
4
70
1
43
0.0
10
43.960102595053563
20
-90.342901292946095
10
43.960102595053563
20
-96.342900405446116
10
28.760102832553542
20
-96.342900405446045
10
28.760102832553542
20
-90.342901292946024
0
CIRCLE
5
674
100
AcDbEntity
8
0
100
AcDbCircle
10
49.410093282553618
20
-21.342922876279413
30
0
40
1.6000000014583193
0
CIRCLE
5
675
100
AcDbEntity
8
0
100
AcDbCircle
10
47.410110511720269
20
80.657073942470575
30
0
40
1.6000000014583371
0
CIRCLE
5
676
100
AcDbEntity
8
0
100
AcDbCircle
10
25.310102324220267
20
80.657073942470575
30
0
40
1.6000000014583371
0
CIRCLE
5
677
100
AcDbEntity
8
0
100
AcDbCircle
10
22.410094365886906
20
-56.542946667946069
30
0
40
2.9999998208333167
0
SPLINE
5
678
100
AcDbEntity
8
0
100
AcDbSpline
70
1064
71
3
72
8
73
4
74
0
42
0.000000001
43
0.0000000001
44
0.0000000001
40
-1
40
-1
40
-1
40
-1
40
0
40
0
40
0
40
0
10
47.910337880209859
20
93.657043411481013
30
0
10
53.450334027365614
20
93.657043411481013
30
0
10
57.910252367412802
20
89.197137183097595
30
0
10
57.910244292970283
20
83.657136998720588
30
0
0
LINE
5
679
100
AcDbEntity
8
0
100
AcDbLine
10
25.9101303606786
20
93.657043411481027
30
0
11
47.910337880209859
21
93.657043411481013
31
0
0
SPLINE
5
680
100
AcDbEntity
8
0
100
AcDbSpline
70
1064
71
3
72
8
73
4
74
0
42
0.000000001
43
0.0000000001
44
0.0000000001
40
-1
40
-1
40
-1
40
-1
40
0
40
0
40
0
40
0
10
23.552651519532759
20
93.37695714846015
30
0
10
24.308435490683493
20
93.558367163089514
30
0
10
25.097147038535041
20
93.657043411481013
30
0
10
25.9101303606786
20
93.657043411481013
30
0
0
SPLINE
5
681
100
AcDbEntity
8
0
100
AcDbSpline
70
1064
71
3
72
8
73
4
74
0
42
0.000000001
43
0.0000000001
44
0.0000000001
40
-1
40
-1
40
-1
40
-1
40
0
40
0
40
0
40
0
10
21.909857736980669
20
93.657043411481013
30
0
10
22.486655540223666
20
93.657043411481013
30
0
10
23.037938105022668
20
93.555082883584134
30
0
10
23.552651519532759
20
93.37695714846015
30
0
0
LINE
5
682
100
AcDbEntity
8
0
100
AcDbLine
10
15.910223947918176
20
93.657043411481013
30
0
11
21.909857736980669
21
93.657043411481013
31
0
0
SPLINE
5
683
100
AcDbEntity
8
0
100
AcDbSpline
70
1064
71
3
72
8
73
4
74
0
42
0.000000001
43
0.0000000001
44
0.0000000001
40
-1
40
-1
40
-1
40
-1
40
0
40
0
40
0
40
0
10
10.910012359376502
20
88.656831822939338
30
0
10
10.910012359376502
20
91.426832924433171
30
0
10
13.140221837119022
20
93.657043411481013
30
0
10
15.910223947918176
20
93.657043411481013
30
0
0
LINE
5
684
100
AcDbEntity
8
0
100
AcDbLine
10
10.910012359376502
20
54.907470657574763
30
0
11
10.910012359376502
21
88.656831822939338
31
0
0
SPLINE
5
685
100
AcDbEntity
8
0
100
AcDbSpline
70
1064
71
3
72
8
73
4
74
0
42
0.000000001
43
0.0000000001
44
0.0000000001
40
-1
40
-1
40
-1
40
-1
40
0
40
0
40
0
40
0
10
11.90995132422028
20
51.157316003389766
30
0
10
11.90995132422028
20
52.525820972668754
30
0
10
11.545148010011275
20
53.805305212882772
30
0
10
10.910012359376502
20
54.907470657574763
30
0
0
LINE
5
686
100
AcDbEntity
8
0
100
AcDbLine
10
11.909951324220263
20
-63.842903691383611
30
0
11
11.90995132422028
21
51.157316003389766
31
0
0
SPLINE
5
687
100
AcDbEntity
8
0
100
AcDbSpline
70
1064
71
3
72
8
73
4
74
0
42
0.000000001
43
0.0000000001
44
0.0000000001
40
-1
40
-1
40
-1
40
-1
40
0
40
0
40
0
40
0
10
10.910012359376466
20
-67.593062382789867
30
0
10
11.545148010011239
20
-66.490900975319164
30
0
10
11.909951324220245
20
-65.211408660662556
30
0
10
11.909951324220245
20
-63.842903691383611
30
0
0
LINE
5
688
100
AcDbEntity
8
0
100
AcDbLine
10
10.910012359376466
20
-101.34294031247732
30
0
11
10.910012359376466
21
-67.593062382789867
31
0
0
SPLINE
5
689
100
AcDbEntity
8
0
100
AcDbSpline
70
1064
71
3
72
8
73
4
74
0
42
0.000000001
43
0.0000000001
44
0.0000000001
40
-1
40
-1
40
-1
40
-1
40
0
40
0
40
0
40
0
10
15.910223947918141
20
-106.343151901019
30
0
10
13.140221837118986
20
-106.343151901019
30
0
10
10.910012359376466
20
-104.11294242327648
30
0
10
10.910012359376466
20
-101.34294031247732
30
0
0
LINE
5
690
100
AcDbEntity
8
0
100
AcDbLine
10
21.909857736980634
20
-106.343151901019
30
0
11
15.910223947918141
21
-106.343151901019
31
0
0
SPLINE
5
691
100
AcDbEntity
8
0
100
AcDbSpline
70
1064
71
3
72
8
73
4
74
0
42
0.000000001
43
0.0000000001
44
0.0000000001
40
-1
40
-1
40
-1
40
-1
40
0
40
0
40
0
40
0
10
23.553685048178572
20
-106.06306563799818
30
0
10
23.038713251507019
20
-106.24139777605974
30
0
10
22.486994666810567
20
-106.343151901019
30
0
10
21.909857736980634
20
-106.343151901019
30
0
0
SPLINE
5
692
100
AcDbEntity
8
0
100
AcDbSpline
70
1064
71
3
72
8
73
4
74
0
42
0.000000001
43
0.0000000001
44
0.0000000001
40
-1
40
-1
40
-1
40
-1
40
0
40
0
40
0
40
0
10
25.910130360678565
20
-106.343151901019
30
0
10
25.097526537334645
20
-106.343151901019
30
0
10
24.309146041627443
20
-106.24432072426123
30
0
10
23.553685048178572
20
-106.06306563799818
30
0
0
LINE
5
693
100
AcDbEntity
8
0
100
AcDbLine
10
47.910337880209823
20
-106.343151901019
30
0
11
25.910130360678565
21
-106.343151901019
31
0
0
SPLINE
5
694
100
AcDbEntity
8
0
100
AcDbSpline
70
1064
71
3
72
8
73
4
74
0
42
0.000000001
43
0.0000000001
44
0.0000000001
40
-1
40
-1
40
-1
40
-1
40
0
40
0
40
0
40
0
10
57.910244292970248
20
-96.342728723935721
30
0
10
57.910244292970248
20
-101.88273294553403
30
0
10
53.450334027365543
20
-106.343151901019
30
0
10
47.910337880209823
20
-106.343151901019
30
0
0
LINE
5
695
100
AcDbEntity
8
0
100
AcDbLine
10
57.910244292970248
20
-71.342704309873199
30
0
11
57.910244292970248
21
-96.342728723935721
31
0
0
SPLINE
5
696
100
AcDbEntity
8
0
100
AcDbSpline
70
1064
71
3
72
8
73
4
74
0
42
0.000000001
43
0.0000000001
44
0.0000000001
40
-1
40
-1
40
-1
40
-1
40
0
40
0
40
0
40
0
10
55.909849598959802
20
-69.34282638018567
30
0
10
57.01784882839096
20
-69.34282638018567
30
0
10
57.910252367412767
20
-70.234713154884588
30
0
10
57.910244292970248
20
-71.342704309873199
30
0
0
LINE
5
697
100
AcDbEntity
8
0
100
AcDbLine
10
49.910215809897309
20
-69.34282638018567
30
0
11
55.909849598959802
21
-69.34282638018567
31
0
0
LINE
5
698
100
AcDbEntity
8
0
100
AcDbLine
10
49.910215809897309
20
-54.342708378883572
30
0
11
49.910215809897309
21
-69.34282638018567
31
0
0
LINE
5
699
100
AcDbEntity
8
0
100
AcDbLine
10
55.909849598959802
20
-54.342708378883614
30
0
11
49.910215809897309
21
-54.342708378883572
31
0
0
SPLINE
5
700
100
AcDbEntity
8
0
100
AcDbSpline
70
1064
71
3
72
8
73
4
74
0
42
0.000000001
43
0.0000000001
44
0.0000000001
40
-1
40
-1
40
-1
40
-1
40
0
40
0
40
0
40
0
10
57.910244292970248
20
-52.342830449196086
30
0
10
57.910252367412767
20
-53.450837753069806
30
0
10
57.017848828390996
20
-54.342708378883614
30
0
10
55.909849598959838
20
-54.342708378883614
30
0
0
LINE
5
701
100
AcDbEntity
8
0
100
AcDbLine
10
57.910244292970283
20
-16.342960657529435
30
0
11
57.910244292970248
21
-52.342830449196086
31
0
0
SPLINE
5
702
100
AcDbEntity
8
0
100
AcDbSpline
70
1064
71
3
72
8
73
4
74
0
42
0.000000001
43
0.0000000001
44
0.0000000001
40
-1
40
-1
40
-1
40
-1
40
0
40
0
40
0
40
0
10
52.910032704428609
20
-11.342749068987796
30
0
10
55.680034815227764
20
-11.342749068987796
30
0
10
57.910244292970283
20
-13.572958546730316
30
0
10
57.910244292970283
20
-16.342960657529471
30
0
0
LINE
5
703
100
AcDbEntity
8
0
100
AcDbLine
10
32.91021987890776
20
-11.342749068987796
30
0
11
52.910032704428609
21
-11.342749068987796
31
0
0
LINE
5
704
100
AcDbEntity
8
0
100
AcDbLine
10
32.910219878907739
20
-1.3428426562273366
30
0
11
32.91021987890776
21
-11.342749068987796
31
0
0
LINE
5
705
100
AcDbEntity
8
0
100
AcDbLine
10
52.910032704428609
20
-1.3428426562273366
30
0
11
32.910219878907739
21
-1.3428426562273366
31
0
0
SPLINE
5
706
100
AcDbEntity
8
0
100
AcDbSpline
70
1064
71
3
72
8
73
4
74
0
42
0.000000001
43
0.0000000001
44
0.0000000001
40
-1
40
-1
40
-1
40
-1
40
0
40
0
40
0
40
0
10
57.910244292970248
20
3.6568521679913957
30
0
10
57.910244292970248
20
0.88685005719224108
30
0
10
55.680034815227728
20
-1.3428426562273543
30
0
10
52.910032704428573
20
-1.3428426562273543
30
0
0
LINE
5
707
100
AcDbEntity
8
0
100
AcDbLine
10
57.910244292970248
20
34.6570271354393
30
0
11
57.910244292970248
21
3.6568521679913957
31
0
0
SPLINE
5
708
100
AcDbEntity
8
0
100
AcDbSpline
70
1064
71
3
72
8
73
4
74
0
42
0.000000001
43
0.0000000001
44
0.0000000001
40
-1
40
-1
40
-1
40
-1
40
0
40
0
40
0
40
0
10
55.909849598959838
20
36.656905065126821
30
0
10
57.017848828390996
20
36.656905065126821
30
0
10
57.910252367412767
20
35.765026364870458
30
0
10
57.910244292970248
20
34.6570271354393
30
0
0
LINE
5
709
100
AcDbEntity
8
0
100
AcDbLine
10
49.910215809897309
20
36.656905065126821
30
0
11
55.909849598959838
21
36.656905065126821
31
0
0
LINE
5
710
100
AcDbEntity
8
0
100
AcDbLine
10
49.910215809897345
20
51.657023066428955
30
0
11
49.910215809897309
21
36.656905065126821
31
0
0
LINE
5
711
100
AcDbEntity
8
0
100
AcDbLine
10
55.909849598959838
20
51.657023066428906
30
0
11
49.910215809897345
21
51.657023066428955
31
0
0
SPLINE
5
712
100
AcDbEntity
8
0
100
AcDbSpline
70
1064
71
3
72
8
73
4
74
0
42
0.000000001
43
0.0000000001
44
0.0000000001
40
-1
40
-1
40
-1
40
-1
40
0
40
0
40
0
40
0
10
57.910244292970248
20
53.65690099611642
30
0
10
57.910252367412767
20
52.548901766685262
30
0
10
57.017848828390996
20
51.657023066428906
30
0
10
55.909849598959838
20
51.657023066428906
30
0
0
LINE
5
713
100
AcDbEntity
8
0
100
AcDbLine
10
57.910244292970283
20
83.657136998720588
30
0
11
57.910244292970248
21
53.65690099611642
31
0
0
ENDSEC
0
SECTION
2
OBJECTS
0
DICTIONARY
5
C
100
AcDbDictionary
3
ACAD_GROUP
350
D
3
ACAD_MLINESTYLE
350
17
0
DICTIONARY
5
D
100
AcDbDictionary
0
DICTIONARY
5
1A
330
C
100
AcDbDictionary
0
DICTIONARY
5
17
100
AcDbDictionary
0
ENDSEC
0
EOF
